<mxfile host="app.diagrams.net" agent="Mozilla/5.0 (Windows NT 10.0; Win64; x64) AppleWebKit/537.36 (KHTML, like Gecko) Chrome/133.0.0.0 Safari/537.36" version="26.0.14">
  <diagram name="Halaman-1" id="Y1p3a-VsKzeeBjnzf4Sp">
    <mxGraphModel dx="794" dy="446" grid="1" gridSize="10" guides="1" tooltips="1" connect="1" arrows="1" fold="1" page="1" pageScale="1" pageWidth="827" pageHeight="1169" math="0" shadow="0">
      <root>
        <mxCell id="0" />
        <mxCell id="1" parent="0" />
        <UserObject label="&lt;svg id=&quot;container&quot; width=&quot;934.68359375&quot; xmlns=&quot;http://www.w3.org/2000/svg&quot; class=&quot;flowchart&quot; height=&quot;1540.4375&quot; viewBox=&quot;0 0 934.68359375 1540.4375&quot; role=&quot;graphics-document document&quot; aria-roledescription=&quot;flowchart-v2&quot;&gt;&lt;style&gt;#container{font-family:&quot;trebuchet ms&quot;,verdana,arial,sans-serif;font-size:16px;fill:#000000;}#container .error-icon{fill:#552222;}#container .error-text{fill:#552222;stroke:#552222;}#container .edge-thickness-normal{stroke-width:1px;}#container .edge-thickness-thick{stroke-width:3.5px;}#container .edge-pattern-solid{stroke-dasharray:0;}#container .edge-thickness-invisible{stroke-width:0;fill:none;}#container .edge-pattern-dashed{stroke-dasharray:3;}#container .edge-pattern-dotted{stroke-dasharray:2;}#container .marker{fill:#666;stroke:#666;}#container .marker.cross{stroke:#666;}#container svg{font-family:&quot;trebuchet ms&quot;,verdana,arial,sans-serif;font-size:16px;}#container p{margin:0;}#container .label{font-family:&quot;trebuchet ms&quot;,verdana,arial,sans-serif;color:#000000;}#container .cluster-label text{fill:#333;}#container .cluster-label span{color:#333;}#container .cluster-label span p{background-color:transparent;}#container .label text,#container span{fill:#000000;color:#000000;}#container .node rect,#container .node circle,#container .node ellipse,#container .node polygon,#container .node path{fill:#eee;stroke:#999;stroke-width:1px;}#container .rough-node .label text,#container .node .label text,#container .image-shape .label,#container .icon-shape .label{text-anchor:middle;}#container .node .katex path{fill:#000;stroke:#000;stroke-width:1px;}#container .rough-node .label,#container .node .label,#container .image-shape .label,#container .icon-shape .label{text-align:center;}#container .node.clickable{cursor:pointer;}#container .root .anchor path{fill:#666!important;stroke-width:0;stroke:#666;}#container .arrowheadPath{fill:#333333;}#container .edgePath .path{stroke:#666;stroke-width:2.0px;}#container .flowchart-link{stroke:#666;fill:none;}#container .edgeLabel{background-color:white;text-align:center;}#container .edgeLabel p{background-color:white;}#container .edgeLabel rect{opacity:0.5;background-color:white;fill:white;}#container .labelBkg{background-color:rgba(255, 255, 255, 0.5);}#container .cluster rect{fill:hsl(0, 0%, 98.9215686275%);stroke:#707070;stroke-width:1px;}#container .cluster text{fill:#333;}#container .cluster span{color:#333;}#container div.mermaidTooltip{position:absolute;text-align:center;max-width:200px;padding:2px;font-family:&quot;trebuchet ms&quot;,verdana,arial,sans-serif;font-size:12px;background:hsl(-160, 0%, 93.3333333333%);border:1px solid #707070;border-radius:2px;pointer-events:none;z-index:100;}#container .flowchartTitleText{text-anchor:middle;font-size:18px;fill:#000000;}#container rect.text{fill:none;stroke-width:0;}#container .icon-shape,#container .image-shape{background-color:white;text-align:center;}#container .icon-shape p,#container .image-shape p{background-color:white;padding:2px;}#container .icon-shape rect,#container .image-shape rect{opacity:0.5;background-color:white;fill:white;}#container :root{--mermaid-font-family:&quot;trebuchet ms&quot;,verdana,arial,sans-serif;}#container .actor&amp;gt;*{fill:#ffd700!important;stroke:#000!important;}#container .actor span{fill:#ffd700!important;stroke:#000!important;}#container .swimlane&amp;gt;*{fill:#e0e0e0!important;stroke:#666!important;stroke-width:2px!important;}#container .swimlane span{fill:#e0e0e0!important;stroke:#666!important;stroke-width:2px!important;}&lt;/style&gt;&lt;g&gt;&lt;marker id=&quot;container_flowchart-v2-pointEnd&quot; class=&quot;marker flowchart-v2&quot; viewBox=&quot;0 0 10 10&quot; refX=&quot;5&quot; refY=&quot;5&quot; markerUnits=&quot;userSpaceOnUse&quot; markerWidth=&quot;8&quot; markerHeight=&quot;8&quot; orient=&quot;auto&quot;&gt;&lt;path d=&quot;M 0 0 L 10 5 L 0 10 z&quot; class=&quot;arrowMarkerPath&quot; style=&quot;stroke-width: 1; stroke-dasharray: 1, 0;&quot;&gt;&lt;/path&gt;&lt;/marker&gt;&lt;marker id=&quot;container_flowchart-v2-pointStart&quot; class=&quot;marker flowchart-v2&quot; viewBox=&quot;0 0 10 10&quot; refX=&quot;4.5&quot; refY=&quot;5&quot; markerUnits=&quot;userSpaceOnUse&quot; markerWidth=&quot;8&quot; markerHeight=&quot;8&quot; orient=&quot;auto&quot;&gt;&lt;path d=&quot;M 0 5 L 10 10 L 10 0 z&quot; class=&quot;arrowMarkerPath&quot; style=&quot;stroke-width: 1; stroke-dasharray: 1, 0;&quot;&gt;&lt;/path&gt;&lt;/marker&gt;&lt;marker id=&quot;container_flowchart-v2-circleEnd&quot; class=&quot;marker flowchart-v2&quot; viewBox=&quot;0 0 10 10&quot; refX=&quot;11&quot; refY=&quot;5&quot; markerUnits=&quot;userSpaceOnUse&quot; markerWidth=&quot;11&quot; markerHeight=&quot;11&quot; orient=&quot;auto&quot;&gt;&lt;circle cx=&quot;5&quot; cy=&quot;5&quot; r=&quot;5&quot; class=&quot;arrowMarkerPath&quot; style=&quot;stroke-width: 1; stroke-dasharray: 1, 0;&quot;&gt;&lt;/circle&gt;&lt;/marker&gt;&lt;marker id=&quot;container_flowchart-v2-circleStart&quot; class=&quot;marker flowchart-v2&quot; viewBox=&quot;0 0 10 10&quot; refX=&quot;-1&quot; refY=&quot;5&quot; markerUnits=&quot;userSpaceOnUse&quot; markerWidth=&quot;11&quot; markerHeight=&quot;11&quot; orient=&quot;auto&quot;&gt;&lt;circle cx=&quot;5&quot; cy=&quot;5&quot; r=&quot;5&quot; class=&quot;arrowMarkerPath&quot; style=&quot;stroke-width: 1; stroke-dasharray: 1, 0;&quot;&gt;&lt;/circle&gt;&lt;/marker&gt;&lt;marker id=&quot;container_flowchart-v2-crossEnd&quot; class=&quot;marker cross flowchart-v2&quot; viewBox=&quot;0 0 11 11&quot; refX=&quot;12&quot; refY=&quot;5.2&quot; markerUnits=&quot;userSpaceOnUse&quot; markerWidth=&quot;11&quot; markerHeight=&quot;11&quot; orient=&quot;auto&quot;&gt;&lt;path d=&quot;M 1,1 l 9,9 M 10,1 l -9,9&quot; class=&quot;arrowMarkerPath&quot; style=&quot;stroke-width: 2; stroke-dasharray: 1, 0;&quot;&gt;&lt;/path&gt;&lt;/marker&gt;&lt;marker id=&quot;container_flowchart-v2-crossStart&quot; class=&quot;marker cross flowchart-v2&quot; viewBox=&quot;0 0 11 11&quot; refX=&quot;-1&quot; refY=&quot;5.2&quot; markerUnits=&quot;userSpaceOnUse&quot; markerWidth=&quot;11&quot; markerHeight=&quot;11&quot; orient=&quot;auto&quot;&gt;&lt;path d=&quot;M 1,1 l 9,9 M 10,1 l -9,9&quot; class=&quot;arrowMarkerPath&quot; style=&quot;stroke-width: 2; stroke-dasharray: 1, 0;&quot;&gt;&lt;/path&gt;&lt;/marker&gt;&lt;g class=&quot;root&quot;&gt;&lt;g class=&quot;clusters&quot;&gt;&lt;/g&gt;&lt;g class=&quot;edgePaths&quot;&gt;&lt;/g&gt;&lt;g class=&quot;edgeLabels&quot;&gt;&lt;/g&gt;&lt;g class=&quot;nodes&quot;&gt;&lt;g class=&quot;root&quot; transform=&quot;translate(0, 0)&quot;&gt;&lt;g class=&quot;clusters&quot;&gt;&lt;g class=&quot;cluster&quot; id=&quot;subGraph1&quot; data-look=&quot;classic&quot;&gt;&lt;rect style=&quot;&quot; x=&quot;8&quot; y=&quot;8&quot; width=&quot;918.68359375&quot; height=&quot;1524.4375&quot;&gt;&lt;/rect&gt;&lt;g class=&quot;cluster-label&quot; transform=&quot;translate(390.427734375, 8)&quot;&gt;&lt;foreignObject width=&quot;153.828125&quot; height=&quot;24&quot;&gt;&lt;div xmlns=&quot;http://www.w3.org/1999/xhtml&quot; style=&quot;display: table-cell; white-space: nowrap; line-height: 1.5; max-width: 200px; text-align: center;&quot;&gt;&lt;span class=&quot;nodeLabel&quot;&gt;&lt;p&gt;Transaction Handling&lt;/p&gt;&lt;/span&gt;&lt;/div&gt;&lt;/foreignObject&gt;&lt;/g&gt;&lt;/g&gt;&lt;/g&gt;&lt;g class=&quot;edgePaths&quot;&gt;&lt;path d=&quot;M616.305,84.5L616.305,90.75C616.305,97,616.305,109.5,616.305,121.333C616.305,133.167,616.305,144.333,616.305,149.917L616.305,155.5&quot; id=&quot;L_start_U1_1&quot; class=&quot;edge-thickness-normal edge-pattern-solid edge-thickness-normal edge-pattern-solid flowchart-link&quot; style=&quot;&quot; marker-end=&quot;url(#container_flowchart-v2-pointEnd)&quot;&gt;&lt;/path&gt;&lt;path d=&quot;M581.77,213.5L573.776,219.75C565.781,226,549.793,238.5,541.799,250.333C533.805,262.167,533.805,273.333,533.805,278.917L533.805,284.5&quot; id=&quot;L_U1_T1_2&quot; class=&quot;edge-thickness-normal edge-pattern-solid edge-thickness-normal edge-pattern-solid flowchart-link&quot; style=&quot;&quot; marker-end=&quot;url(#container_flowchart-v2-pointEnd)&quot;&gt;&lt;/path&gt;&lt;path d=&quot;M533.805,342.5L533.805,348.75C533.805,355,533.805,367.5,533.879,379.417C533.954,391.333,534.103,402.667,534.177,408.334L534.252,414&quot; id=&quot;L_T1_decision1_3&quot; class=&quot;edge-thickness-normal edge-pattern-solid edge-thickness-normal edge-pattern-solid flowchart-link&quot; style=&quot;&quot; marker-end=&quot;url(#container_flowchart-v2-pointEnd)&quot;&gt;&lt;/path&gt;&lt;path d=&quot;M486.741,561.015L470.536,577.109C454.33,593.203,421.919,625.39,405.713,651.068C389.508,676.745,389.508,695.911,389.508,705.495L389.508,715.078&quot; id=&quot;L_decision1_T2_4&quot; class=&quot;edge-thickness-normal edge-pattern-solid edge-thickness-normal edge-pattern-solid flowchart-link&quot; style=&quot;&quot; marker-end=&quot;url(#container_flowchart-v2-pointEnd)&quot;&gt;&lt;/path&gt;&lt;path d=&quot;M389.508,773.078L389.508,781.328C389.508,789.578,389.508,806.078,389.508,821.65C389.508,837.221,389.508,851.865,389.508,859.186L389.508,866.508&quot; id=&quot;L_T2_T3_5&quot; class=&quot;edge-thickness-normal edge-pattern-solid edge-thickness-normal edge-pattern-solid flowchart-link&quot; style=&quot;&quot; marker-end=&quot;url(#container_flowchart-v2-pointEnd)&quot;&gt;&lt;/path&gt;&lt;path d=&quot;M389.508,948.508L389.508,958.496C389.508,968.484,389.508,988.461,389.508,1006.033C389.508,1023.604,389.508,1038.771,389.508,1046.354L389.508,1053.938&quot; id=&quot;L_T3_U2_6&quot; class=&quot;edge-thickness-normal edge-pattern-solid edge-thickness-normal edge-pattern-solid flowchart-link&quot; style=&quot;&quot; marker-end=&quot;url(#container_flowchart-v2-pointEnd)&quot;&gt;&lt;/path&gt;&lt;path d=&quot;M389.508,1111.938L389.508,1118.188C389.508,1124.438,389.508,1136.938,389.508,1171.188C389.508,1205.438,389.508,1261.438,389.508,1289.438L389.508,1317.438&quot; id=&quot;L_U2_end1_7&quot; class=&quot;edge-thickness-normal edge-pattern-solid edge-thickness-normal edge-pattern-solid flowchart-link&quot; style=&quot;&quot; marker-end=&quot;url(#container_flowchart-v2-pointEnd)&quot;&gt;&lt;/path&gt;&lt;path d=&quot;M581.868,561.015L597.907,577.109C613.946,593.203,646.024,625.39,662.063,649.068C678.102,672.745,678.102,687.911,678.102,695.495L678.102,703.078&quot; id=&quot;L_decision1_U3_8&quot; class=&quot;edge-thickness-normal edge-pattern-solid edge-thickness-normal edge-pattern-solid flowchart-link&quot; style=&quot;&quot; marker-end=&quot;url(#container_flowchart-v2-pointEnd)&quot;&gt;&lt;/path&gt;&lt;path d=&quot;M678.102,785.078L678.102,791.328C678.102,797.578,678.102,810.078,687.464,826.189C696.827,842.301,715.553,862.023,724.916,871.885L734.279,881.746&quot; id=&quot;L_U3_decision2_9&quot; class=&quot;edge-thickness-normal edge-pattern-solid edge-thickness-normal edge-pattern-solid flowchart-link&quot; style=&quot;&quot; marker-end=&quot;url(#container_flowchart-v2-pointEnd)&quot;&gt;&lt;/path&gt;&lt;path d=&quot;M785.17,884.647L794.825,874.302C804.481,863.957,823.791,843.268,833.446,820.173C843.102,797.078,843.102,771.578,843.102,744.078C843.102,716.578,843.102,687.078,843.102,648.197C843.102,609.315,843.102,561.052,843.102,514.789C843.102,468.526,843.102,424.263,843.102,391.382C843.102,358.5,843.102,337,843.102,315.5C843.102,294,843.102,272.5,821.766,255.682C800.431,238.865,757.761,226.729,736.426,220.662L715.09,214.594&quot; id=&quot;L_decision2_U1_10&quot; class=&quot;edge-thickness-normal edge-pattern-solid edge-thickness-normal edge-pattern-solid flowchart-link&quot; style=&quot;&quot; marker-end=&quot;url(#container_flowchart-v2-pointEnd)&quot;&gt;&lt;/path&gt;&lt;path d=&quot;M761.102,959.438L761.018,967.604C760.935,975.771,760.768,992.104,760.685,1009.104C760.602,1026.104,760.602,1043.771,760.602,1052.604L760.602,1061.438&quot; id=&quot;L_decision2_end2_11&quot; class=&quot;edge-thickness-normal edge-pattern-solid edge-thickness-normal edge-pattern-solid flowchart-link&quot; style=&quot;&quot; marker-end=&quot;url(#container_flowchart-v2-pointEnd)&quot;&gt;&lt;/path&gt;&lt;/g&gt;&lt;g class=&quot;edgeLabels&quot;&gt;&lt;g class=&quot;edgeLabel&quot;&gt;&lt;g class=&quot;label&quot; transform=&quot;translate(0, 0)&quot;&gt;&lt;foreignObject width=&quot;0&quot; height=&quot;0&quot;&gt;&lt;div xmlns=&quot;http://www.w3.org/1999/xhtml&quot; class=&quot;labelBkg&quot; style=&quot;display: table-cell; white-space: nowrap; line-height: 1.5; max-width: 200px; text-align: center;&quot;&gt;&lt;span class=&quot;edgeLabel&quot;&gt;&lt;/span&gt;&lt;/div&gt;&lt;/foreignObject&gt;&lt;/g&gt;&lt;/g&gt;&lt;g class=&quot;edgeLabel&quot;&gt;&lt;g class=&quot;label&quot; transform=&quot;translate(0, 0)&quot;&gt;&lt;foreignObject width=&quot;0&quot; height=&quot;0&quot;&gt;&lt;div xmlns=&quot;http://www.w3.org/1999/xhtml&quot; class=&quot;labelBkg&quot; style=&quot;display: table-cell; white-space: nowrap; line-height: 1.5; max-width: 200px; text-align: center;&quot;&gt;&lt;span class=&quot;edgeLabel&quot;&gt;&lt;/span&gt;&lt;/div&gt;&lt;/foreignObject&gt;&lt;/g&gt;&lt;/g&gt;&lt;g class=&quot;edgeLabel&quot;&gt;&lt;g class=&quot;label&quot; transform=&quot;translate(0, 0)&quot;&gt;&lt;foreignObject width=&quot;0&quot; height=&quot;0&quot;&gt;&lt;div xmlns=&quot;http://www.w3.org/1999/xhtml&quot; class=&quot;labelBkg&quot; style=&quot;display: table-cell; white-space: nowrap; line-height: 1.5; max-width: 200px; text-align: center;&quot;&gt;&lt;span class=&quot;edgeLabel&quot;&gt;&lt;/span&gt;&lt;/div&gt;&lt;/foreignObject&gt;&lt;/g&gt;&lt;/g&gt;&lt;g class=&quot;edgeLabel&quot; transform=&quot;translate(389.5078125, 657.578125)&quot;&gt;&lt;g class=&quot;label&quot; transform=&quot;translate(-12.03125, -12)&quot;&gt;&lt;foreignObject width=&quot;24.0625&quot; height=&quot;24&quot;&gt;&lt;div xmlns=&quot;http://www.w3.org/1999/xhtml&quot; class=&quot;labelBkg&quot; style=&quot;display: table-cell; white-space: nowrap; line-height: 1.5; max-width: 200px; text-align: center;&quot;&gt;&lt;span class=&quot;edgeLabel&quot;&gt;&lt;p&gt;Yes&lt;/p&gt;&lt;/span&gt;&lt;/div&gt;&lt;/foreignObject&gt;&lt;/g&gt;&lt;/g&gt;&lt;g class=&quot;edgeLabel&quot;&gt;&lt;g class=&quot;label&quot; transform=&quot;translate(0, 0)&quot;&gt;&lt;foreignObject width=&quot;0&quot; height=&quot;0&quot;&gt;&lt;div xmlns=&quot;http://www.w3.org/1999/xhtml&quot; class=&quot;labelBkg&quot; style=&quot;display: table-cell; white-space: nowrap; line-height: 1.5; max-width: 200px; text-align: center;&quot;&gt;&lt;span class=&quot;edgeLabel&quot;&gt;&lt;/span&gt;&lt;/div&gt;&lt;/foreignObject&gt;&lt;/g&gt;&lt;/g&gt;&lt;g class=&quot;edgeLabel&quot;&gt;&lt;g class=&quot;label&quot; transform=&quot;translate(0, 0)&quot;&gt;&lt;foreignObject width=&quot;0&quot; height=&quot;0&quot;&gt;&lt;div xmlns=&quot;http://www.w3.org/1999/xhtml&quot; class=&quot;labelBkg&quot; style=&quot;display: table-cell; white-space: nowrap; line-height: 1.5; max-width: 200px; text-align: center;&quot;&gt;&lt;span class=&quot;edgeLabel&quot;&gt;&lt;/span&gt;&lt;/div&gt;&lt;/foreignObject&gt;&lt;/g&gt;&lt;/g&gt;&lt;g class=&quot;edgeLabel&quot;&gt;&lt;g class=&quot;label&quot; transform=&quot;translate(0, 0)&quot;&gt;&lt;foreignObject width=&quot;0&quot; height=&quot;0&quot;&gt;&lt;div xmlns=&quot;http://www.w3.org/1999/xhtml&quot; class=&quot;labelBkg&quot; style=&quot;display: table-cell; white-space: nowrap; line-height: 1.5; max-width: 200px; text-align: center;&quot;&gt;&lt;span class=&quot;edgeLabel&quot;&gt;&lt;/span&gt;&lt;/div&gt;&lt;/foreignObject&gt;&lt;/g&gt;&lt;/g&gt;&lt;g class=&quot;edgeLabel&quot; transform=&quot;translate(678.1015625, 657.578125)&quot;&gt;&lt;g class=&quot;label&quot; transform=&quot;translate(-10.140625, -12)&quot;&gt;&lt;foreignObject width=&quot;20.28125&quot; height=&quot;24&quot;&gt;&lt;div xmlns=&quot;http://www.w3.org/1999/xhtml&quot; class=&quot;labelBkg&quot; style=&quot;display: table-cell; white-space: nowrap; line-height: 1.5; max-width: 200px; text-align: center;&quot;&gt;&lt;span class=&quot;edgeLabel&quot;&gt;&lt;p&gt;No&lt;/p&gt;&lt;/span&gt;&lt;/div&gt;&lt;/foreignObject&gt;&lt;/g&gt;&lt;/g&gt;&lt;g class=&quot;edgeLabel&quot;&gt;&lt;g class=&quot;label&quot; transform=&quot;translate(0, 0)&quot;&gt;&lt;foreignObject width=&quot;0&quot; height=&quot;0&quot;&gt;&lt;div xmlns=&quot;http://www.w3.org/1999/xhtml&quot; class=&quot;labelBkg&quot; style=&quot;display: table-cell; white-space: nowrap; line-height: 1.5; max-width: 200px; text-align: center;&quot;&gt;&lt;span class=&quot;edgeLabel&quot;&gt;&lt;/span&gt;&lt;/div&gt;&lt;/foreignObject&gt;&lt;/g&gt;&lt;/g&gt;&lt;g class=&quot;edgeLabel&quot; transform=&quot;translate(843.1015625, 512.7890625)&quot;&gt;&lt;g class=&quot;label&quot; transform=&quot;translate(-12.03125, -12)&quot;&gt;&lt;foreignObject width=&quot;24.0625&quot; height=&quot;24&quot;&gt;&lt;div xmlns=&quot;http://www.w3.org/1999/xhtml&quot; class=&quot;labelBkg&quot; style=&quot;display: table-cell; white-space: nowrap; line-height: 1.5; max-width: 200px; text-align: center;&quot;&gt;&lt;span class=&quot;edgeLabel&quot;&gt;&lt;p&gt;Yes&lt;/p&gt;&lt;/span&gt;&lt;/div&gt;&lt;/foreignObject&gt;&lt;/g&gt;&lt;/g&gt;&lt;g class=&quot;edgeLabel&quot; transform=&quot;translate(760.6015625, 1008.4375)&quot;&gt;&lt;g class=&quot;label&quot; transform=&quot;translate(-10.140625, -12)&quot;&gt;&lt;foreignObject width=&quot;20.28125&quot; height=&quot;24&quot;&gt;&lt;div xmlns=&quot;http://www.w3.org/1999/xhtml&quot; class=&quot;labelBkg&quot; style=&quot;display: table-cell; white-space: nowrap; line-height: 1.5; max-width: 200px; text-align: center;&quot;&gt;&lt;span class=&quot;edgeLabel&quot;&gt;&lt;p&gt;No&lt;/p&gt;&lt;/span&gt;&lt;/div&gt;&lt;/foreignObject&gt;&lt;/g&gt;&lt;/g&gt;&lt;/g&gt;&lt;g class=&quot;nodes&quot;&gt;&lt;g class=&quot;root&quot; transform=&quot;translate(35, 1178.9375)&quot;&gt;&lt;g class=&quot;clusters&quot;&gt;&lt;g class=&quot;cluster&quot; id=&quot;Swimlanes&quot; data-look=&quot;classic&quot;&gt;&lt;rect style=&quot;&quot; x=&quot;8&quot; y=&quot;8&quot; width=&quot;270.453125&quot; height=&quot;308&quot;&gt;&lt;/rect&gt;&lt;g class=&quot;cluster-label&quot; transform=&quot;translate(104.578125, 8)&quot;&gt;&lt;foreignObject width=&quot;77.296875&quot; height=&quot;24&quot;&gt;&lt;div xmlns=&quot;http://www.w3.org/1999/xhtml&quot; style=&quot;display: table-cell; white-space: nowrap; line-height: 1.5; max-width: 200px; text-align: center;&quot;&gt;&lt;span class=&quot;nodeLabel&quot;&gt;&lt;p&gt;Swimlanes&lt;/p&gt;&lt;/span&gt;&lt;/div&gt;&lt;/foreignObject&gt;&lt;/g&gt;&lt;/g&gt;&lt;/g&gt;&lt;g class=&quot;edgePaths&quot;&gt;&lt;path d=&quot;M143.227,112L143.227,120.333C143.227,128.667,143.227,145.333,143.227,161.333C143.227,177.333,143.227,192.667,143.227,200.333L143.227,208&quot; id=&quot;L_U_T_0&quot; class=&quot;edge-thickness-normal edge-pattern-solid edge-thickness-normal edge-pattern-solid flowchart-link&quot; style=&quot;&quot; marker-end=&quot;url(#container_flowchart-v2-pointEnd)&quot;&gt;&lt;/path&gt;&lt;/g&gt;&lt;g class=&quot;edgeLabels&quot;&gt;&lt;g class=&quot;edgeLabel&quot;&gt;&lt;g class=&quot;label&quot; transform=&quot;translate(0, 0)&quot;&gt;&lt;foreignObject width=&quot;0&quot; height=&quot;0&quot;&gt;&lt;div xmlns=&quot;http://www.w3.org/1999/xhtml&quot; class=&quot;labelBkg&quot; style=&quot;display: table-cell; white-space: nowrap; line-height: 1.5; max-width: 200px; text-align: center;&quot;&gt;&lt;span class=&quot;edgeLabel&quot;&gt;&lt;/span&gt;&lt;/div&gt;&lt;/foreignObject&gt;&lt;/g&gt;&lt;/g&gt;&lt;/g&gt;&lt;g class=&quot;nodes&quot;&gt;&lt;g class=&quot;node default swimlane&quot; id=&quot;flowchart-U-2&quot; transform=&quot;translate(143.2265625, 85)&quot;&gt;&lt;rect class=&quot;basic label-container&quot; style=&quot;fill:#e0e0e0 !important;stroke:#666 !important;stroke-width:2px !important&quot; x=&quot;-46.4453125&quot; y=&quot;-27&quot; width=&quot;92.890625&quot; height=&quot;54&quot;&gt;&lt;/rect&gt;&lt;g class=&quot;label&quot; style=&quot;&quot; transform=&quot;translate(-16.4453125, -12)&quot;&gt;&lt;rect&gt;&lt;/rect&gt;&lt;foreignObject width=&quot;32.890625&quot; height=&quot;24&quot;&gt;&lt;div xmlns=&quot;http://www.w3.org/1999/xhtml&quot; style=&quot;display: table-cell; white-space: nowrap; line-height: 1.5; max-width: 200px; text-align: center;&quot;&gt;&lt;span class=&quot;nodeLabel&quot;&gt;&lt;p&gt;User&lt;/p&gt;&lt;/span&gt;&lt;/div&gt;&lt;/foreignObject&gt;&lt;/g&gt;&lt;/g&gt;&lt;g class=&quot;node default swimlane&quot; id=&quot;flowchart-T-3&quot; transform=&quot;translate(143.2265625, 239)&quot;&gt;&lt;rect class=&quot;basic label-container&quot; style=&quot;fill:#e0e0e0 !important;stroke:#666 !important;stroke-width:2px !important&quot; x=&quot;-100.2265625&quot; y=&quot;-27&quot; width=&quot;200.453125&quot; height=&quot;54&quot;&gt;&lt;/rect&gt;&lt;g class=&quot;label&quot; style=&quot;&quot; transform=&quot;translate(-70.2265625, -12)&quot;&gt;&lt;rect&gt;&lt;/rect&gt;&lt;foreignObject width=&quot;140.453125&quot; height=&quot;24&quot;&gt;&lt;div xmlns=&quot;http://www.w3.org/1999/xhtml&quot; style=&quot;display: table-cell; white-space: nowrap; line-height: 1.5; max-width: 200px; text-align: center;&quot;&gt;&lt;span class=&quot;nodeLabel&quot;&gt;&lt;p&gt;Transaction Service&lt;/p&gt;&lt;/span&gt;&lt;/div&gt;&lt;/foreignObject&gt;&lt;/g&gt;&lt;/g&gt;&lt;/g&gt;&lt;/g&gt;&lt;g class=&quot;node default&quot; id=&quot;flowchart-start-6&quot; transform=&quot;translate(616.3046875, 65)&quot;&gt;&lt;rect class=&quot;basic label-container&quot; style=&quot;&quot; rx=&quot;19.5&quot; ry=&quot;19.5&quot; x=&quot;-29.8984375&quot; y=&quot;-19.5&quot; width=&quot;59.796875&quot; height=&quot;39&quot;&gt;&lt;/rect&gt;&lt;g class=&quot;label&quot; style=&quot;&quot; transform=&quot;translate(-17.5234375, -12)&quot;&gt;&lt;rect&gt;&lt;/rect&gt;&lt;foreignObject width=&quot;35.046875&quot; height=&quot;24&quot;&gt;&lt;div xmlns=&quot;http://www.w3.org/1999/xhtml&quot; style=&quot;display: table-cell; white-space: nowrap; line-height: 1.5; max-width: 200px; text-align: center;&quot;&gt;&lt;span class=&quot;nodeLabel&quot;&gt;&lt;p&gt;Start&lt;/p&gt;&lt;/span&gt;&lt;/div&gt;&lt;/foreignObject&gt;&lt;/g&gt;&lt;/g&gt;&lt;g class=&quot;node default&quot; id=&quot;flowchart-U1-7&quot; transform=&quot;translate(616.3046875, 186.5)&quot;&gt;&lt;rect class=&quot;basic label-container&quot; style=&quot;&quot; x=&quot;-100.1328125&quot; y=&quot;-27&quot; width=&quot;200.265625&quot; height=&quot;54&quot;&gt;&lt;/rect&gt;&lt;g class=&quot;label&quot; style=&quot;&quot; transform=&quot;translate(-70.1328125, -12)&quot;&gt;&lt;rect&gt;&lt;/rect&gt;&lt;foreignObject width=&quot;140.265625&quot; height=&quot;24&quot;&gt;&lt;div xmlns=&quot;http://www.w3.org/1999/xhtml&quot; style=&quot;display: table-cell; white-space: nowrap; line-height: 1.5; max-width: 200px; text-align: center;&quot;&gt;&lt;span class=&quot;nodeLabel&quot;&gt;&lt;p&gt;Initiate Transaction&lt;/p&gt;&lt;/span&gt;&lt;/div&gt;&lt;/foreignObject&gt;&lt;/g&gt;&lt;/g&gt;&lt;g class=&quot;node default&quot; id=&quot;flowchart-T1-8&quot; transform=&quot;translate(533.8046875, 315.5)&quot;&gt;&lt;rect class=&quot;basic label-container&quot; style=&quot;&quot; x=&quot;-112.1328125&quot; y=&quot;-27&quot; width=&quot;224.265625&quot; height=&quot;54&quot;&gt;&lt;/rect&gt;&lt;g class=&quot;label&quot; style=&quot;&quot; transform=&quot;translate(-82.1328125, -12)&quot;&gt;&lt;rect&gt;&lt;/rect&gt;&lt;foreignObject width=&quot;164.265625&quot; height=&quot;24&quot;&gt;&lt;div xmlns=&quot;http://www.w3.org/1999/xhtml&quot; style=&quot;display: table-cell; white-space: nowrap; line-height: 1.5; max-width: 200px; text-align: center;&quot;&gt;&lt;span class=&quot;nodeLabel&quot;&gt;&lt;p&gt;Verify Account Balance&lt;/p&gt;&lt;/span&gt;&lt;/div&gt;&lt;/foreignObject&gt;&lt;/g&gt;&lt;/g&gt;&lt;g class=&quot;node default&quot; id=&quot;flowchart-decision1-10&quot; transform=&quot;translate(533.8046875, 512.7890625)&quot;&gt;&lt;polygon points=&quot;95.2890625,0 190.578125,-95.2890625 95.2890625,-190.578125 0,-95.2890625&quot; class=&quot;label-container&quot; transform=&quot;translate(-95.2890625,95.2890625)&quot;&gt;&lt;/polygon&gt;&lt;g class=&quot;label&quot; style=&quot;&quot; transform=&quot;translate(-68.2890625, -12)&quot;&gt;&lt;rect&gt;&lt;/rect&gt;&lt;foreignObject width=&quot;136.578125&quot; height=&quot;24&quot;&gt;&lt;div xmlns=&quot;http://www.w3.org/1999/xhtml&quot; style=&quot;display: table-cell; white-space: nowrap; line-height: 1.5; max-width: 200px; text-align: center;&quot;&gt;&lt;span class=&quot;nodeLabel&quot;&gt;&lt;p&gt;Sufficient Balance?&lt;/p&gt;&lt;/span&gt;&lt;/div&gt;&lt;/foreignObject&gt;&lt;/g&gt;&lt;/g&gt;&lt;g class=&quot;node default&quot; id=&quot;flowchart-T2-12&quot; transform=&quot;translate(389.5078125, 746.078125)&quot;&gt;&lt;rect class=&quot;basic label-container&quot; style=&quot;&quot; x=&quot;-108.59375&quot; y=&quot;-27&quot; width=&quot;217.1875&quot; height=&quot;54&quot;&gt;&lt;/rect&gt;&lt;g class=&quot;label&quot; style=&quot;&quot; transform=&quot;translate(-78.59375, -12)&quot;&gt;&lt;rect&gt;&lt;/rect&gt;&lt;foreignObject width=&quot;157.1875&quot; height=&quot;24&quot;&gt;&lt;div xmlns=&quot;http://www.w3.org/1999/xhtml&quot; style=&quot;display: table-cell; white-space: nowrap; line-height: 1.5; max-width: 200px; text-align: center;&quot;&gt;&lt;span class=&quot;nodeLabel&quot;&gt;&lt;p&gt;Complete Transaction&lt;/p&gt;&lt;/span&gt;&lt;/div&gt;&lt;/foreignObject&gt;&lt;/g&gt;&lt;/g&gt;&lt;g class=&quot;node default&quot; id=&quot;flowchart-T3-14&quot; transform=&quot;translate(389.5078125, 909.5078125)&quot;&gt;&lt;rect class=&quot;basic label-container&quot; style=&quot;&quot; x=&quot;-130&quot; y=&quot;-39&quot; width=&quot;260&quot; height=&quot;78&quot;&gt;&lt;/rect&gt;&lt;g class=&quot;label&quot; style=&quot;&quot; transform=&quot;translate(-100, -24)&quot;&gt;&lt;rect&gt;&lt;/rect&gt;&lt;foreignObject width=&quot;200&quot; height=&quot;48&quot;&gt;&lt;div xmlns=&quot;http://www.w3.org/1999/xhtml&quot; style=&quot;display: table; white-space: break-spaces; line-height: 1.5; max-width: 200px; text-align: center; width: 200px;&quot;&gt;&lt;span class=&quot;nodeLabel&quot;&gt;&lt;p&gt;Generate Transaction History&lt;/p&gt;&lt;/span&gt;&lt;/div&gt;&lt;/foreignObject&gt;&lt;/g&gt;&lt;/g&gt;&lt;g class=&quot;node default&quot; id=&quot;flowchart-U2-15&quot; transform=&quot;translate(389.5078125, 1084.9375)&quot;&gt;&lt;rect class=&quot;basic label-container&quot; style=&quot;&quot; x=&quot;-102.296875&quot; y=&quot;-27&quot; width=&quot;204.59375&quot; height=&quot;54&quot;&gt;&lt;/rect&gt;&lt;g class=&quot;label&quot; style=&quot;&quot; transform=&quot;translate(-72.296875, -12)&quot;&gt;&lt;rect&gt;&lt;/rect&gt;&lt;foreignObject width=&quot;144.59375&quot; height=&quot;24&quot;&gt;&lt;div xmlns=&quot;http://www.w3.org/1999/xhtml&quot; style=&quot;display: table-cell; white-space: nowrap; line-height: 1.5; max-width: 200px; text-align: center;&quot;&gt;&lt;span class=&quot;nodeLabel&quot;&gt;&lt;p&gt;Transaction Success&lt;/p&gt;&lt;/span&gt;&lt;/div&gt;&lt;/foreignObject&gt;&lt;/g&gt;&lt;/g&gt;&lt;g class=&quot;node default&quot; id=&quot;flowchart-end1-16&quot; transform=&quot;translate(389.5078125, 1340.9375)&quot;&gt;&lt;rect class=&quot;basic label-container&quot; style=&quot;&quot; rx=&quot;19.5&quot; ry=&quot;19.5&quot; x=&quot;-26.0546875&quot; y=&quot;-19.5&quot; width=&quot;52.109375&quot; height=&quot;39&quot;&gt;&lt;/rect&gt;&lt;g class=&quot;label&quot; style=&quot;&quot; transform=&quot;translate(-13.6796875, -12)&quot;&gt;&lt;rect&gt;&lt;/rect&gt;&lt;foreignObject width=&quot;27.359375&quot; height=&quot;24&quot;&gt;&lt;div xmlns=&quot;http://www.w3.org/1999/xhtml&quot; style=&quot;display: table-cell; white-space: nowrap; line-height: 1.5; max-width: 200px; text-align: center;&quot;&gt;&lt;span class=&quot;nodeLabel&quot;&gt;&lt;p&gt;End&lt;/p&gt;&lt;/span&gt;&lt;/div&gt;&lt;/foreignObject&gt;&lt;/g&gt;&lt;/g&gt;&lt;g class=&quot;node default&quot; id=&quot;flowchart-U3-18&quot; transform=&quot;translate(678.1015625, 746.078125)&quot;&gt;&lt;rect class=&quot;basic label-container&quot; style=&quot;&quot; x=&quot;-130&quot; y=&quot;-39&quot; width=&quot;260&quot; height=&quot;78&quot;&gt;&lt;/rect&gt;&lt;g class=&quot;label&quot; style=&quot;&quot; transform=&quot;translate(-100, -24)&quot;&gt;&lt;rect&gt;&lt;/rect&gt;&lt;foreignObject width=&quot;200&quot; height=&quot;48&quot;&gt;&lt;div xmlns=&quot;http://www.w3.org/1999/xhtml&quot; style=&quot;display: table; white-space: break-spaces; line-height: 1.5; max-width: 200px; text-align: center; width: 200px;&quot;&gt;&lt;span class=&quot;nodeLabel&quot;&gt;&lt;p&gt;Display Error: Insufficient Funds&lt;/p&gt;&lt;/span&gt;&lt;/div&gt;&lt;/foreignObject&gt;&lt;/g&gt;&lt;/g&gt;&lt;g class=&quot;node default&quot; id=&quot;flowchart-decision2-20&quot; transform=&quot;translate(760.6015625, 909.5078125)&quot;&gt;&lt;polygon points=&quot;49.4296875,0 98.859375,-49.4296875 49.4296875,-98.859375 0,-49.4296875&quot; class=&quot;label-container&quot; transform=&quot;translate(-49.4296875,49.4296875)&quot;&gt;&lt;/polygon&gt;&lt;g class=&quot;label&quot; style=&quot;&quot; transform=&quot;translate(-22.4296875, -12)&quot;&gt;&lt;rect&gt;&lt;/rect&gt;&lt;foreignObject width=&quot;44.859375&quot; height=&quot;24&quot;&gt;&lt;div xmlns=&quot;http://www.w3.org/1999/xhtml&quot; style=&quot;display: table-cell; white-space: nowrap; line-height: 1.5; max-width: 200px; text-align: center;&quot;&gt;&lt;span class=&quot;nodeLabel&quot;&gt;&lt;p&gt;Retry?&lt;/p&gt;&lt;/span&gt;&lt;/div&gt;&lt;/foreignObject&gt;&lt;/g&gt;&lt;/g&gt;&lt;g class=&quot;node default&quot; id=&quot;flowchart-end2-24&quot; transform=&quot;translate(760.6015625, 1084.9375)&quot;&gt;&lt;rect class=&quot;basic label-container&quot; style=&quot;&quot; rx=&quot;19.5&quot; ry=&quot;19.5&quot; x=&quot;-26.0546875&quot; y=&quot;-19.5&quot; width=&quot;52.109375&quot; height=&quot;39&quot;&gt;&lt;/rect&gt;&lt;g class=&quot;label&quot; style=&quot;&quot; transform=&quot;translate(-13.6796875, -12)&quot;&gt;&lt;rect&gt;&lt;/rect&gt;&lt;foreignObject width=&quot;27.359375&quot; height=&quot;24&quot;&gt;&lt;div xmlns=&quot;http://www.w3.org/1999/xhtml&quot; style=&quot;display: table-cell; white-space: nowrap; line-height: 1.5; max-width: 200px; text-align: center;&quot;&gt;&lt;span class=&quot;nodeLabel&quot;&gt;&lt;p&gt;End&lt;/p&gt;&lt;/span&gt;&lt;/div&gt;&lt;/foreignObject&gt;&lt;/g&gt;&lt;/g&gt;&lt;g class=&quot;node default actor&quot; id=&quot;flowchart-actorU-0&quot; transform=&quot;translate(550.12109375, 1340.9375)&quot;&gt;&lt;circle class=&quot;basic label-container&quot; style=&quot;fill:#ffd700 !important;stroke:#000 !important&quot; r=&quot;23.9453125&quot; cx=&quot;0&quot; cy=&quot;0&quot;&gt;&lt;/circle&gt;&lt;g class=&quot;label&quot; style=&quot;&quot; transform=&quot;translate(-16.4453125, -12)&quot;&gt;&lt;rect&gt;&lt;/rect&gt;&lt;foreignObject width=&quot;32.890625&quot; height=&quot;24&quot;&gt;&lt;div xmlns=&quot;http://www.w3.org/1999/xhtml&quot; style=&quot;display: table-cell; white-space: nowrap; line-height: 1.5; max-width: 200px; text-align: center;&quot;&gt;&lt;span class=&quot;nodeLabel&quot;&gt;&lt;p&gt;User&lt;/p&gt;&lt;/span&gt;&lt;/div&gt;&lt;/foreignObject&gt;&lt;/g&gt;&lt;/g&gt;&lt;g class=&quot;node default actor&quot; id=&quot;flowchart-actorT-1&quot; transform=&quot;translate(701.79296875, 1340.9375)&quot;&gt;&lt;circle class=&quot;basic label-container&quot; style=&quot;fill:#ffd700 !important;stroke:#000 !important&quot; r=&quot;77.7265625&quot; cx=&quot;0&quot; cy=&quot;0&quot;&gt;&lt;/circle&gt;&lt;g class=&quot;label&quot; style=&quot;&quot; transform=&quot;translate(-70.2265625, -12)&quot;&gt;&lt;rect&gt;&lt;/rect&gt;&lt;foreignObject width=&quot;140.453125&quot; height=&quot;24&quot;&gt;&lt;div xmlns=&quot;http://www.w3.org/1999/xhtml&quot; style=&quot;display: table-cell; white-space: nowrap; line-height: 1.5; max-width: 200px; text-align: center;&quot;&gt;&lt;span class=&quot;nodeLabel&quot;&gt;&lt;p&gt;Transaction Service&lt;/p&gt;&lt;/span&gt;&lt;/div&gt;&lt;/foreignObject&gt;&lt;/g&gt;&lt;/g&gt;&lt;/g&gt;&lt;/g&gt;&lt;/g&gt;&lt;/g&gt;&lt;/g&gt;&lt;/svg&gt;" link="&lt;svg id=&quot;container&quot; width=&quot;934.68359375&quot; xmlns=&quot;http://www.w3.org/2000/svg&quot; class=&quot;flowchart&quot; height=&quot;1540.4375&quot; viewBox=&quot;0 0 934.68359375 1540.4375&quot; role=&quot;graphics-document document&quot; aria-roledescription=&quot;flowchart-v2&quot;&gt;&lt;style&gt;#container{font-family:&quot;trebuchet ms&quot;,verdana,arial,sans-serif;font-size:16px;fill:#000000;}#container .error-icon{fill:#552222;}#container .error-text{fill:#552222;stroke:#552222;}#container .edge-thickness-normal{stroke-width:1px;}#container .edge-thickness-thick{stroke-width:3.5px;}#container .edge-pattern-solid{stroke-dasharray:0;}#container .edge-thickness-invisible{stroke-width:0;fill:none;}#container .edge-pattern-dashed{stroke-dasharray:3;}#container .edge-pattern-dotted{stroke-dasharray:2;}#container .marker{fill:#666;stroke:#666;}#container .marker.cross{stroke:#666;}#container svg{font-family:&quot;trebuchet ms&quot;,verdana,arial,sans-serif;font-size:16px;}#container p{margin:0;}#container .label{font-family:&quot;trebuchet ms&quot;,verdana,arial,sans-serif;color:#000000;}#container .cluster-label text{fill:#333;}#container .cluster-label span{color:#333;}#container .cluster-label span p{background-color:transparent;}#container .label text,#container span{fill:#000000;color:#000000;}#container .node rect,#container .node circle,#container .node ellipse,#container .node polygon,#container .node path{fill:#eee;stroke:#999;stroke-width:1px;}#container .rough-node .label text,#container .node .label text,#container .image-shape .label,#container .icon-shape .label{text-anchor:middle;}#container .node .katex path{fill:#000;stroke:#000;stroke-width:1px;}#container .rough-node .label,#container .node .label,#container .image-shape .label,#container .icon-shape .label{text-align:center;}#container .node.clickable{cursor:pointer;}#container .root .anchor path{fill:#666!important;stroke-width:0;stroke:#666;}#container .arrowheadPath{fill:#333333;}#container .edgePath .path{stroke:#666;stroke-width:2.0px;}#container .flowchart-link{stroke:#666;fill:none;}#container .edgeLabel{background-color:white;text-align:center;}#container .edgeLabel p{background-color:white;}#container .edgeLabel rect{opacity:0.5;background-color:white;fill:white;}#container .labelBkg{background-color:rgba(255, 255, 255, 0.5);}#container .cluster rect{fill:hsl(0, 0%, 98.9215686275%);stroke:#707070;stroke-width:1px;}#container .cluster text{fill:#333;}#container .cluster span{color:#333;}#container div.mermaidTooltip{position:absolute;text-align:center;max-width:200px;padding:2px;font-family:&quot;trebuchet ms&quot;,verdana,arial,sans-serif;font-size:12px;background:hsl(-160, 0%, 93.3333333333%);border:1px solid #707070;border-radius:2px;pointer-events:none;z-index:100;}#container .flowchartTitleText{text-anchor:middle;font-size:18px;fill:#000000;}#container rect.text{fill:none;stroke-width:0;}#container .icon-shape,#container .image-shape{background-color:white;text-align:center;}#container .icon-shape p,#container .image-shape p{background-color:white;padding:2px;}#container .icon-shape rect,#container .image-shape rect{opacity:0.5;background-color:white;fill:white;}#container :root{--mermaid-font-family:&quot;trebuchet ms&quot;,verdana,arial,sans-serif;}#container .actor&amp;gt;*{fill:#ffd700!important;stroke:#000!important;}#container .actor span{fill:#ffd700!important;stroke:#000!important;}#container .swimlane&amp;gt;*{fill:#e0e0e0!important;stroke:#666!important;stroke-width:2px!important;}#container .swimlane span{fill:#e0e0e0!important;stroke:#666!important;stroke-width:2px!important;}&lt;/style&gt;&lt;g&gt;&lt;marker id=&quot;container_flowchart-v2-pointEnd&quot; class=&quot;marker flowchart-v2&quot; viewBox=&quot;0 0 10 10&quot; refX=&quot;5&quot; refY=&quot;5&quot; markerUnits=&quot;userSpaceOnUse&quot; markerWidth=&quot;8&quot; markerHeight=&quot;8&quot; orient=&quot;auto&quot;&gt;&lt;path d=&quot;M 0 0 L 10 5 L 0 10 z&quot; class=&quot;arrowMarkerPath&quot; style=&quot;stroke-width: 1; stroke-dasharray: 1, 0;&quot;&gt;&lt;/path&gt;&lt;/marker&gt;&lt;marker id=&quot;container_flowchart-v2-pointStart&quot; class=&quot;marker flowchart-v2&quot; viewBox=&quot;0 0 10 10&quot; refX=&quot;4.5&quot; refY=&quot;5&quot; markerUnits=&quot;userSpaceOnUse&quot; markerWidth=&quot;8&quot; markerHeight=&quot;8&quot; orient=&quot;auto&quot;&gt;&lt;path d=&quot;M 0 5 L 10 10 L 10 0 z&quot; class=&quot;arrowMarkerPath&quot; style=&quot;stroke-width: 1; stroke-dasharray: 1, 0;&quot;&gt;&lt;/path&gt;&lt;/marker&gt;&lt;marker id=&quot;container_flowchart-v2-circleEnd&quot; class=&quot;marker flowchart-v2&quot; viewBox=&quot;0 0 10 10&quot; refX=&quot;11&quot; refY=&quot;5&quot; markerUnits=&quot;userSpaceOnUse&quot; markerWidth=&quot;11&quot; markerHeight=&quot;11&quot; orient=&quot;auto&quot;&gt;&lt;circle cx=&quot;5&quot; cy=&quot;5&quot; r=&quot;5&quot; class=&quot;arrowMarkerPath&quot; style=&quot;stroke-width: 1; stroke-dasharray: 1, 0;&quot;&gt;&lt;/circle&gt;&lt;/marker&gt;&lt;marker id=&quot;container_flowchart-v2-circleStart&quot; class=&quot;marker flowchart-v2&quot; viewBox=&quot;0 0 10 10&quot; refX=&quot;-1&quot; refY=&quot;5&quot; markerUnits=&quot;userSpaceOnUse&quot; markerWidth=&quot;11&quot; markerHeight=&quot;11&quot; orient=&quot;auto&quot;&gt;&lt;circle cx=&quot;5&quot; cy=&quot;5&quot; r=&quot;5&quot; class=&quot;arrowMarkerPath&quot; style=&quot;stroke-width: 1; stroke-dasharray: 1, 0;&quot;&gt;&lt;/circle&gt;&lt;/marker&gt;&lt;marker id=&quot;container_flowchart-v2-crossEnd&quot; class=&quot;marker cross flowchart-v2&quot; viewBox=&quot;0 0 11 11&quot; refX=&quot;12&quot; refY=&quot;5.2&quot; markerUnits=&quot;userSpaceOnUse&quot; markerWidth=&quot;11&quot; markerHeight=&quot;11&quot; orient=&quot;auto&quot;&gt;&lt;path d=&quot;M 1,1 l 9,9 M 10,1 l -9,9&quot; class=&quot;arrowMarkerPath&quot; style=&quot;stroke-width: 2; stroke-dasharray: 1, 0;&quot;&gt;&lt;/path&gt;&lt;/marker&gt;&lt;marker id=&quot;container_flowchart-v2-crossStart&quot; class=&quot;marker cross flowchart-v2&quot; viewBox=&quot;0 0 11 11&quot; refX=&quot;-1&quot; refY=&quot;5.2&quot; markerUnits=&quot;userSpaceOnUse&quot; markerWidth=&quot;11&quot; markerHeight=&quot;11&quot; orient=&quot;auto&quot;&gt;&lt;path d=&quot;M 1,1 l 9,9 M 10,1 l -9,9&quot; class=&quot;arrowMarkerPath&quot; style=&quot;stroke-width: 2; stroke-dasharray: 1, 0;&quot;&gt;&lt;/path&gt;&lt;/marker&gt;&lt;g class=&quot;root&quot;&gt;&lt;g class=&quot;clusters&quot;&gt;&lt;/g&gt;&lt;g class=&quot;edgePaths&quot;&gt;&lt;/g&gt;&lt;g class=&quot;edgeLabels&quot;&gt;&lt;/g&gt;&lt;g class=&quot;nodes&quot;&gt;&lt;g class=&quot;root&quot; transform=&quot;translate(0, 0)&quot;&gt;&lt;g class=&quot;clusters&quot;&gt;&lt;g class=&quot;cluster&quot; id=&quot;subGraph1&quot; data-look=&quot;classic&quot;&gt;&lt;rect style=&quot;&quot; x=&quot;8&quot; y=&quot;8&quot; width=&quot;918.68359375&quot; height=&quot;1524.4375&quot;&gt;&lt;/rect&gt;&lt;g class=&quot;cluster-label&quot; transform=&quot;translate(390.427734375, 8)&quot;&gt;&lt;foreignObject width=&quot;153.828125&quot; height=&quot;24&quot;&gt;&lt;div xmlns=&quot;http://www.w3.org/1999/xhtml&quot; style=&quot;display: table-cell; white-space: nowrap; line-height: 1.5; max-width: 200px; text-align: center;&quot;&gt;&lt;span class=&quot;nodeLabel&quot;&gt;&lt;p&gt;Transaction Handling&lt;/p&gt;&lt;/span&gt;&lt;/div&gt;&lt;/foreignObject&gt;&lt;/g&gt;&lt;/g&gt;&lt;/g&gt;&lt;g class=&quot;edgePaths&quot;&gt;&lt;path d=&quot;M616.305,84.5L616.305,90.75C616.305,97,616.305,109.5,616.305,121.333C616.305,133.167,616.305,144.333,616.305,149.917L616.305,155.5&quot; id=&quot;L_start_U1_1&quot; class=&quot;edge-thickness-normal edge-pattern-solid edge-thickness-normal edge-pattern-solid flowchart-link&quot; style=&quot;&quot; marker-end=&quot;url(#container_flowchart-v2-pointEnd)&quot;&gt;&lt;/path&gt;&lt;path d=&quot;M581.77,213.5L573.776,219.75C565.781,226,549.793,238.5,541.799,250.333C533.805,262.167,533.805,273.333,533.805,278.917L533.805,284.5&quot; id=&quot;L_U1_T1_2&quot; class=&quot;edge-thickness-normal edge-pattern-solid edge-thickness-normal edge-pattern-solid flowchart-link&quot; style=&quot;&quot; marker-end=&quot;url(#container_flowchart-v2-pointEnd)&quot;&gt;&lt;/path&gt;&lt;path d=&quot;M533.805,342.5L533.805,348.75C533.805,355,533.805,367.5,533.879,379.417C533.954,391.333,534.103,402.667,534.177,408.334L534.252,414&quot; id=&quot;L_T1_decision1_3&quot; class=&quot;edge-thickness-normal edge-pattern-solid edge-thickness-normal edge-pattern-solid flowchart-link&quot; style=&quot;&quot; marker-end=&quot;url(#container_flowchart-v2-pointEnd)&quot;&gt;&lt;/path&gt;&lt;path d=&quot;M486.741,561.015L470.536,577.109C454.33,593.203,421.919,625.39,405.713,651.068C389.508,676.745,389.508,695.911,389.508,705.495L389.508,715.078&quot; id=&quot;L_decision1_T2_4&quot; class=&quot;edge-thickness-normal edge-pattern-solid edge-thickness-normal edge-pattern-solid flowchart-link&quot; style=&quot;&quot; marker-end=&quot;url(#container_flowchart-v2-pointEnd)&quot;&gt;&lt;/path&gt;&lt;path d=&quot;M389.508,773.078L389.508,781.328C389.508,789.578,389.508,806.078,389.508,821.65C389.508,837.221,389.508,851.865,389.508,859.186L389.508,866.508&quot; id=&quot;L_T2_T3_5&quot; class=&quot;edge-thickness-normal edge-pattern-solid edge-thickness-normal edge-pattern-solid flowchart-link&quot; style=&quot;&quot; marker-end=&quot;url(#container_flowchart-v2-pointEnd)&quot;&gt;&lt;/path&gt;&lt;path d=&quot;M389.508,948.508L389.508,958.496C389.508,968.484,389.508,988.461,389.508,1006.033C389.508,1023.604,389.508,1038.771,389.508,1046.354L389.508,1053.938&quot; id=&quot;L_T3_U2_6&quot; class=&quot;edge-thickness-normal edge-pattern-solid edge-thickness-normal edge-pattern-solid flowchart-link&quot; style=&quot;&quot; marker-end=&quot;url(#container_flowchart-v2-pointEnd)&quot;&gt;&lt;/path&gt;&lt;path d=&quot;M389.508,1111.938L389.508,1118.188C389.508,1124.438,389.508,1136.938,389.508,1171.188C389.508,1205.438,389.508,1261.438,389.508,1289.438L389.508,1317.438&quot; id=&quot;L_U2_end1_7&quot; class=&quot;edge-thickness-normal edge-pattern-solid edge-thickness-normal edge-pattern-solid flowchart-link&quot; style=&quot;&quot; marker-end=&quot;url(#container_flowchart-v2-pointEnd)&quot;&gt;&lt;/path&gt;&lt;path d=&quot;M581.868,561.015L597.907,577.109C613.946,593.203,646.024,625.39,662.063,649.068C678.102,672.745,678.102,687.911,678.102,695.495L678.102,703.078&quot; id=&quot;L_decision1_U3_8&quot; class=&quot;edge-thickness-normal edge-pattern-solid edge-thickness-normal edge-pattern-solid flowchart-link&quot; style=&quot;&quot; marker-end=&quot;url(#container_flowchart-v2-pointEnd)&quot;&gt;&lt;/path&gt;&lt;path d=&quot;M678.102,785.078L678.102,791.328C678.102,797.578,678.102,810.078,687.464,826.189C696.827,842.301,715.553,862.023,724.916,871.885L734.279,881.746&quot; id=&quot;L_U3_decision2_9&quot; class=&quot;edge-thickness-normal edge-pattern-solid edge-thickness-normal edge-pattern-solid flowchart-link&quot; style=&quot;&quot; marker-end=&quot;url(#container_flowchart-v2-pointEnd)&quot;&gt;&lt;/path&gt;&lt;path d=&quot;M785.17,884.647L794.825,874.302C804.481,863.957,823.791,843.268,833.446,820.173C843.102,797.078,843.102,771.578,843.102,744.078C843.102,716.578,843.102,687.078,843.102,648.197C843.102,609.315,843.102,561.052,843.102,514.789C843.102,468.526,843.102,424.263,843.102,391.382C843.102,358.5,843.102,337,843.102,315.5C843.102,294,843.102,272.5,821.766,255.682C800.431,238.865,757.761,226.729,736.426,220.662L715.09,214.594&quot; id=&quot;L_decision2_U1_10&quot; class=&quot;edge-thickness-normal edge-pattern-solid edge-thickness-normal edge-pattern-solid flowchart-link&quot; style=&quot;&quot; marker-end=&quot;url(#container_flowchart-v2-pointEnd)&quot;&gt;&lt;/path&gt;&lt;path d=&quot;M761.102,959.438L761.018,967.604C760.935,975.771,760.768,992.104,760.685,1009.104C760.602,1026.104,760.602,1043.771,760.602,1052.604L760.602,1061.438&quot; id=&quot;L_decision2_end2_11&quot; class=&quot;edge-thickness-normal edge-pattern-solid edge-thickness-normal edge-pattern-solid flowchart-link&quot; style=&quot;&quot; marker-end=&quot;url(#container_flowchart-v2-pointEnd)&quot;&gt;&lt;/path&gt;&lt;/g&gt;&lt;g class=&quot;edgeLabels&quot;&gt;&lt;g class=&quot;edgeLabel&quot;&gt;&lt;g class=&quot;label&quot; transform=&quot;translate(0, 0)&quot;&gt;&lt;foreignObject width=&quot;0&quot; height=&quot;0&quot;&gt;&lt;div xmlns=&quot;http://www.w3.org/1999/xhtml&quot; class=&quot;labelBkg&quot; style=&quot;display: table-cell; white-space: nowrap; line-height: 1.5; max-width: 200px; text-align: center;&quot;&gt;&lt;span class=&quot;edgeLabel&quot;&gt;&lt;/span&gt;&lt;/div&gt;&lt;/foreignObject&gt;&lt;/g&gt;&lt;/g&gt;&lt;g class=&quot;edgeLabel&quot;&gt;&lt;g class=&quot;label&quot; transform=&quot;translate(0, 0)&quot;&gt;&lt;foreignObject width=&quot;0&quot; height=&quot;0&quot;&gt;&lt;div xmlns=&quot;http://www.w3.org/1999/xhtml&quot; class=&quot;labelBkg&quot; style=&quot;display: table-cell; white-space: nowrap; line-height: 1.5; max-width: 200px; text-align: center;&quot;&gt;&lt;span class=&quot;edgeLabel&quot;&gt;&lt;/span&gt;&lt;/div&gt;&lt;/foreignObject&gt;&lt;/g&gt;&lt;/g&gt;&lt;g class=&quot;edgeLabel&quot;&gt;&lt;g class=&quot;label&quot; transform=&quot;translate(0, 0)&quot;&gt;&lt;foreignObject width=&quot;0&quot; height=&quot;0&quot;&gt;&lt;div xmlns=&quot;http://www.w3.org/1999/xhtml&quot; class=&quot;labelBkg&quot; style=&quot;display: table-cell; white-space: nowrap; line-height: 1.5; max-width: 200px; text-align: center;&quot;&gt;&lt;span class=&quot;edgeLabel&quot;&gt;&lt;/span&gt;&lt;/div&gt;&lt;/foreignObject&gt;&lt;/g&gt;&lt;/g&gt;&lt;g class=&quot;edgeLabel&quot; transform=&quot;translate(389.5078125, 657.578125)&quot;&gt;&lt;g class=&quot;label&quot; transform=&quot;translate(-12.03125, -12)&quot;&gt;&lt;foreignObject width=&quot;24.0625&quot; height=&quot;24&quot;&gt;&lt;div xmlns=&quot;http://www.w3.org/1999/xhtml&quot; class=&quot;labelBkg&quot; style=&quot;display: table-cell; white-space: nowrap; line-height: 1.5; max-width: 200px; text-align: center;&quot;&gt;&lt;span class=&quot;edgeLabel&quot;&gt;&lt;p&gt;Yes&lt;/p&gt;&lt;/span&gt;&lt;/div&gt;&lt;/foreignObject&gt;&lt;/g&gt;&lt;/g&gt;&lt;g class=&quot;edgeLabel&quot;&gt;&lt;g class=&quot;label&quot; transform=&quot;translate(0, 0)&quot;&gt;&lt;foreignObject width=&quot;0&quot; height=&quot;0&quot;&gt;&lt;div xmlns=&quot;http://www.w3.org/1999/xhtml&quot; class=&quot;labelBkg&quot; style=&quot;display: table-cell; white-space: nowrap; line-height: 1.5; max-width: 200px; text-align: center;&quot;&gt;&lt;span class=&quot;edgeLabel&quot;&gt;&lt;/span&gt;&lt;/div&gt;&lt;/foreignObject&gt;&lt;/g&gt;&lt;/g&gt;&lt;g class=&quot;edgeLabel&quot;&gt;&lt;g class=&quot;label&quot; transform=&quot;translate(0, 0)&quot;&gt;&lt;foreignObject width=&quot;0&quot; height=&quot;0&quot;&gt;&lt;div xmlns=&quot;http://www.w3.org/1999/xhtml&quot; class=&quot;labelBkg&quot; style=&quot;display: table-cell; white-space: nowrap; line-height: 1.5; max-width: 200px; text-align: center;&quot;&gt;&lt;span class=&quot;edgeLabel&quot;&gt;&lt;/span&gt;&lt;/div&gt;&lt;/foreignObject&gt;&lt;/g&gt;&lt;/g&gt;&lt;g class=&quot;edgeLabel&quot;&gt;&lt;g class=&quot;label&quot; transform=&quot;translate(0, 0)&quot;&gt;&lt;foreignObject width=&quot;0&quot; height=&quot;0&quot;&gt;&lt;div xmlns=&quot;http://www.w3.org/1999/xhtml&quot; class=&quot;labelBkg&quot; style=&quot;display: table-cell; white-space: nowrap; line-height: 1.5; max-width: 200px; text-align: center;&quot;&gt;&lt;span class=&quot;edgeLabel&quot;&gt;&lt;/span&gt;&lt;/div&gt;&lt;/foreignObject&gt;&lt;/g&gt;&lt;/g&gt;&lt;g class=&quot;edgeLabel&quot; transform=&quot;translate(678.1015625, 657.578125)&quot;&gt;&lt;g class=&quot;label&quot; transform=&quot;translate(-10.140625, -12)&quot;&gt;&lt;foreignObject width=&quot;20.28125&quot; height=&quot;24&quot;&gt;&lt;div xmlns=&quot;http://www.w3.org/1999/xhtml&quot; class=&quot;labelBkg&quot; style=&quot;display: table-cell; white-space: nowrap; line-height: 1.5; max-width: 200px; text-align: center;&quot;&gt;&lt;span class=&quot;edgeLabel&quot;&gt;&lt;p&gt;No&lt;/p&gt;&lt;/span&gt;&lt;/div&gt;&lt;/foreignObject&gt;&lt;/g&gt;&lt;/g&gt;&lt;g class=&quot;edgeLabel&quot;&gt;&lt;g class=&quot;label&quot; transform=&quot;translate(0, 0)&quot;&gt;&lt;foreignObject width=&quot;0&quot; height=&quot;0&quot;&gt;&lt;div xmlns=&quot;http://www.w3.org/1999/xhtml&quot; class=&quot;labelBkg&quot; style=&quot;display: table-cell; white-space: nowrap; line-height: 1.5; max-width: 200px; text-align: center;&quot;&gt;&lt;span class=&quot;edgeLabel&quot;&gt;&lt;/span&gt;&lt;/div&gt;&lt;/foreignObject&gt;&lt;/g&gt;&lt;/g&gt;&lt;g class=&quot;edgeLabel&quot; transform=&quot;translate(843.1015625, 512.7890625)&quot;&gt;&lt;g class=&quot;label&quot; transform=&quot;translate(-12.03125, -12)&quot;&gt;&lt;foreignObject width=&quot;24.0625&quot; height=&quot;24&quot;&gt;&lt;div xmlns=&quot;http://www.w3.org/1999/xhtml&quot; class=&quot;labelBkg&quot; style=&quot;display: table-cell; white-space: nowrap; line-height: 1.5; max-width: 200px; text-align: center;&quot;&gt;&lt;span class=&quot;edgeLabel&quot;&gt;&lt;p&gt;Yes&lt;/p&gt;&lt;/span&gt;&lt;/div&gt;&lt;/foreignObject&gt;&lt;/g&gt;&lt;/g&gt;&lt;g class=&quot;edgeLabel&quot; transform=&quot;translate(760.6015625, 1008.4375)&quot;&gt;&lt;g class=&quot;label&quot; transform=&quot;translate(-10.140625, -12)&quot;&gt;&lt;foreignObject width=&quot;20.28125&quot; height=&quot;24&quot;&gt;&lt;div xmlns=&quot;http://www.w3.org/1999/xhtml&quot; class=&quot;labelBkg&quot; style=&quot;display: table-cell; white-space: nowrap; line-height: 1.5; max-width: 200px; text-align: center;&quot;&gt;&lt;span class=&quot;edgeLabel&quot;&gt;&lt;p&gt;No&lt;/p&gt;&lt;/span&gt;&lt;/div&gt;&lt;/foreignObject&gt;&lt;/g&gt;&lt;/g&gt;&lt;/g&gt;&lt;g class=&quot;nodes&quot;&gt;&lt;g class=&quot;root&quot; transform=&quot;translate(35, 1178.9375)&quot;&gt;&lt;g class=&quot;clusters&quot;&gt;&lt;g class=&quot;cluster&quot; id=&quot;Swimlanes&quot; data-look=&quot;classic&quot;&gt;&lt;rect style=&quot;&quot; x=&quot;8&quot; y=&quot;8&quot; width=&quot;270.453125&quot; height=&quot;308&quot;&gt;&lt;/rect&gt;&lt;g class=&quot;cluster-label&quot; transform=&quot;translate(104.578125, 8)&quot;&gt;&lt;foreignObject width=&quot;77.296875&quot; height=&quot;24&quot;&gt;&lt;div xmlns=&quot;http://www.w3.org/1999/xhtml&quot; style=&quot;display: table-cell; white-space: nowrap; line-height: 1.5; max-width: 200px; text-align: center;&quot;&gt;&lt;span class=&quot;nodeLabel&quot;&gt;&lt;p&gt;Swimlanes&lt;/p&gt;&lt;/span&gt;&lt;/div&gt;&lt;/foreignObject&gt;&lt;/g&gt;&lt;/g&gt;&lt;/g&gt;&lt;g class=&quot;edgePaths&quot;&gt;&lt;path d=&quot;M143.227,112L143.227,120.333C143.227,128.667,143.227,145.333,143.227,161.333C143.227,177.333,143.227,192.667,143.227,200.333L143.227,208&quot; id=&quot;L_U_T_0&quot; class=&quot;edge-thickness-normal edge-pattern-solid edge-thickness-normal edge-pattern-solid flowchart-link&quot; style=&quot;&quot; marker-end=&quot;url(#container_flowchart-v2-pointEnd)&quot;&gt;&lt;/path&gt;&lt;/g&gt;&lt;g class=&quot;edgeLabels&quot;&gt;&lt;g class=&quot;edgeLabel&quot;&gt;&lt;g class=&quot;label&quot; transform=&quot;translate(0, 0)&quot;&gt;&lt;foreignObject width=&quot;0&quot; height=&quot;0&quot;&gt;&lt;div xmlns=&quot;http://www.w3.org/1999/xhtml&quot; class=&quot;labelBkg&quot; style=&quot;display: table-cell; white-space: nowrap; line-height: 1.5; max-width: 200px; text-align: center;&quot;&gt;&lt;span class=&quot;edgeLabel&quot;&gt;&lt;/span&gt;&lt;/div&gt;&lt;/foreignObject&gt;&lt;/g&gt;&lt;/g&gt;&lt;/g&gt;&lt;g class=&quot;nodes&quot;&gt;&lt;g class=&quot;node default swimlane&quot; id=&quot;flowchart-U-2&quot; transform=&quot;translate(143.2265625, 85)&quot;&gt;&lt;rect class=&quot;basic label-container&quot; style=&quot;fill:#e0e0e0 !important;stroke:#666 !important;stroke-width:2px !important&quot; x=&quot;-46.4453125&quot; y=&quot;-27&quot; width=&quot;92.890625&quot; height=&quot;54&quot;&gt;&lt;/rect&gt;&lt;g class=&quot;label&quot; style=&quot;&quot; transform=&quot;translate(-16.4453125, -12)&quot;&gt;&lt;rect&gt;&lt;/rect&gt;&lt;foreignObject width=&quot;32.890625&quot; height=&quot;24&quot;&gt;&lt;div xmlns=&quot;http://www.w3.org/1999/xhtml&quot; style=&quot;display: table-cell; white-space: nowrap; line-height: 1.5; max-width: 200px; text-align: center;&quot;&gt;&lt;span class=&quot;nodeLabel&quot;&gt;&lt;p&gt;User&lt;/p&gt;&lt;/span&gt;&lt;/div&gt;&lt;/foreignObject&gt;&lt;/g&gt;&lt;/g&gt;&lt;g class=&quot;node default swimlane&quot; id=&quot;flowchart-T-3&quot; transform=&quot;translate(143.2265625, 239)&quot;&gt;&lt;rect class=&quot;basic label-container&quot; style=&quot;fill:#e0e0e0 !important;stroke:#666 !important;stroke-width:2px !important&quot; x=&quot;-100.2265625&quot; y=&quot;-27&quot; width=&quot;200.453125&quot; height=&quot;54&quot;&gt;&lt;/rect&gt;&lt;g class=&quot;label&quot; style=&quot;&quot; transform=&quot;translate(-70.2265625, -12)&quot;&gt;&lt;rect&gt;&lt;/rect&gt;&lt;foreignObject width=&quot;140.453125&quot; height=&quot;24&quot;&gt;&lt;div xmlns=&quot;http://www.w3.org/1999/xhtml&quot; style=&quot;display: table-cell; white-space: nowrap; line-height: 1.5; max-width: 200px; text-align: center;&quot;&gt;&lt;span class=&quot;nodeLabel&quot;&gt;&lt;p&gt;Transaction Service&lt;/p&gt;&lt;/span&gt;&lt;/div&gt;&lt;/foreignObject&gt;&lt;/g&gt;&lt;/g&gt;&lt;/g&gt;&lt;/g&gt;&lt;g class=&quot;node default&quot; id=&quot;flowchart-start-6&quot; transform=&quot;translate(616.3046875, 65)&quot;&gt;&lt;rect class=&quot;basic label-container&quot; style=&quot;&quot; rx=&quot;19.5&quot; ry=&quot;19.5&quot; x=&quot;-29.8984375&quot; y=&quot;-19.5&quot; width=&quot;59.796875&quot; height=&quot;39&quot;&gt;&lt;/rect&gt;&lt;g class=&quot;label&quot; style=&quot;&quot; transform=&quot;translate(-17.5234375, -12)&quot;&gt;&lt;rect&gt;&lt;/rect&gt;&lt;foreignObject width=&quot;35.046875&quot; height=&quot;24&quot;&gt;&lt;div xmlns=&quot;http://www.w3.org/1999/xhtml&quot; style=&quot;display: table-cell; white-space: nowrap; line-height: 1.5; max-width: 200px; text-align: center;&quot;&gt;&lt;span class=&quot;nodeLabel&quot;&gt;&lt;p&gt;Start&lt;/p&gt;&lt;/span&gt;&lt;/div&gt;&lt;/foreignObject&gt;&lt;/g&gt;&lt;/g&gt;&lt;g class=&quot;node default&quot; id=&quot;flowchart-U1-7&quot; transform=&quot;translate(616.3046875, 186.5)&quot;&gt;&lt;rect class=&quot;basic label-container&quot; style=&quot;&quot; x=&quot;-100.1328125&quot; y=&quot;-27&quot; width=&quot;200.265625&quot; height=&quot;54&quot;&gt;&lt;/rect&gt;&lt;g class=&quot;label&quot; style=&quot;&quot; transform=&quot;translate(-70.1328125, -12)&quot;&gt;&lt;rect&gt;&lt;/rect&gt;&lt;foreignObject width=&quot;140.265625&quot; height=&quot;24&quot;&gt;&lt;div xmlns=&quot;http://www.w3.org/1999/xhtml&quot; style=&quot;display: table-cell; white-space: nowrap; line-height: 1.5; max-width: 200px; text-align: center;&quot;&gt;&lt;span class=&quot;nodeLabel&quot;&gt;&lt;p&gt;Initiate Transaction&lt;/p&gt;&lt;/span&gt;&lt;/div&gt;&lt;/foreignObject&gt;&lt;/g&gt;&lt;/g&gt;&lt;g class=&quot;node default&quot; id=&quot;flowchart-T1-8&quot; transform=&quot;translate(533.8046875, 315.5)&quot;&gt;&lt;rect class=&quot;basic label-container&quot; style=&quot;&quot; x=&quot;-112.1328125&quot; y=&quot;-27&quot; width=&quot;224.265625&quot; height=&quot;54&quot;&gt;&lt;/rect&gt;&lt;g class=&quot;label&quot; style=&quot;&quot; transform=&quot;translate(-82.1328125, -12)&quot;&gt;&lt;rect&gt;&lt;/rect&gt;&lt;foreignObject width=&quot;164.265625&quot; height=&quot;24&quot;&gt;&lt;div xmlns=&quot;http://www.w3.org/1999/xhtml&quot; style=&quot;display: table-cell; white-space: nowrap; line-height: 1.5; max-width: 200px; text-align: center;&quot;&gt;&lt;span class=&quot;nodeLabel&quot;&gt;&lt;p&gt;Verify Account Balance&lt;/p&gt;&lt;/span&gt;&lt;/div&gt;&lt;/foreignObject&gt;&lt;/g&gt;&lt;/g&gt;&lt;g class=&quot;node default&quot; id=&quot;flowchart-decision1-10&quot; transform=&quot;translate(533.8046875, 512.7890625)&quot;&gt;&lt;polygon points=&quot;95.2890625,0 190.578125,-95.2890625 95.2890625,-190.578125 0,-95.2890625&quot; class=&quot;label-container&quot; transform=&quot;translate(-95.2890625,95.2890625)&quot;&gt;&lt;/polygon&gt;&lt;g class=&quot;label&quot; style=&quot;&quot; transform=&quot;translate(-68.2890625, -12)&quot;&gt;&lt;rect&gt;&lt;/rect&gt;&lt;foreignObject width=&quot;136.578125&quot; height=&quot;24&quot;&gt;&lt;div xmlns=&quot;http://www.w3.org/1999/xhtml&quot; style=&quot;display: table-cell; white-space: nowrap; line-height: 1.5; max-width: 200px; text-align: center;&quot;&gt;&lt;span class=&quot;nodeLabel&quot;&gt;&lt;p&gt;Sufficient Balance?&lt;/p&gt;&lt;/span&gt;&lt;/div&gt;&lt;/foreignObject&gt;&lt;/g&gt;&lt;/g&gt;&lt;g class=&quot;node default&quot; id=&quot;flowchart-T2-12&quot; transform=&quot;translate(389.5078125, 746.078125)&quot;&gt;&lt;rect class=&quot;basic label-container&quot; style=&quot;&quot; x=&quot;-108.59375&quot; y=&quot;-27&quot; width=&quot;217.1875&quot; height=&quot;54&quot;&gt;&lt;/rect&gt;&lt;g class=&quot;label&quot; style=&quot;&quot; transform=&quot;translate(-78.59375, -12)&quot;&gt;&lt;rect&gt;&lt;/rect&gt;&lt;foreignObject width=&quot;157.1875&quot; height=&quot;24&quot;&gt;&lt;div xmlns=&quot;http://www.w3.org/1999/xhtml&quot; style=&quot;display: table-cell; white-space: nowrap; line-height: 1.5; max-width: 200px; text-align: center;&quot;&gt;&lt;span class=&quot;nodeLabel&quot;&gt;&lt;p&gt;Complete Transaction&lt;/p&gt;&lt;/span&gt;&lt;/div&gt;&lt;/foreignObject&gt;&lt;/g&gt;&lt;/g&gt;&lt;g class=&quot;node default&quot; id=&quot;flowchart-T3-14&quot; transform=&quot;translate(389.5078125, 909.5078125)&quot;&gt;&lt;rect class=&quot;basic label-container&quot; style=&quot;&quot; x=&quot;-130&quot; y=&quot;-39&quot; width=&quot;260&quot; height=&quot;78&quot;&gt;&lt;/rect&gt;&lt;g class=&quot;label&quot; style=&quot;&quot; transform=&quot;translate(-100, -24)&quot;&gt;&lt;rect&gt;&lt;/rect&gt;&lt;foreignObject width=&quot;200&quot; height=&quot;48&quot;&gt;&lt;div xmlns=&quot;http://www.w3.org/1999/xhtml&quot; style=&quot;display: table; white-space: break-spaces; line-height: 1.5; max-width: 200px; text-align: center; width: 200px;&quot;&gt;&lt;span class=&quot;nodeLabel&quot;&gt;&lt;p&gt;Generate Transaction History&lt;/p&gt;&lt;/span&gt;&lt;/div&gt;&lt;/foreignObject&gt;&lt;/g&gt;&lt;/g&gt;&lt;g class=&quot;node default&quot; id=&quot;flowchart-U2-15&quot; transform=&quot;translate(389.5078125, 1084.9375)&quot;&gt;&lt;rect class=&quot;basic label-container&quot; style=&quot;&quot; x=&quot;-102.296875&quot; y=&quot;-27&quot; width=&quot;204.59375&quot; height=&quot;54&quot;&gt;&lt;/rect&gt;&lt;g class=&quot;label&quot; style=&quot;&quot; transform=&quot;translate(-72.296875, -12)&quot;&gt;&lt;rect&gt;&lt;/rect&gt;&lt;foreignObject width=&quot;144.59375&quot; height=&quot;24&quot;&gt;&lt;div xmlns=&quot;http://www.w3.org/1999/xhtml&quot; style=&quot;display: table-cell; white-space: nowrap; line-height: 1.5; max-width: 200px; text-align: center;&quot;&gt;&lt;span class=&quot;nodeLabel&quot;&gt;&lt;p&gt;Transaction Success&lt;/p&gt;&lt;/span&gt;&lt;/div&gt;&lt;/foreignObject&gt;&lt;/g&gt;&lt;/g&gt;&lt;g class=&quot;node default&quot; id=&quot;flowchart-end1-16&quot; transform=&quot;translate(389.5078125, 1340.9375)&quot;&gt;&lt;rect class=&quot;basic label-container&quot; style=&quot;&quot; rx=&quot;19.5&quot; ry=&quot;19.5&quot; x=&quot;-26.0546875&quot; y=&quot;-19.5&quot; width=&quot;52.109375&quot; height=&quot;39&quot;&gt;&lt;/rect&gt;&lt;g class=&quot;label&quot; style=&quot;&quot; transform=&quot;translate(-13.6796875, -12)&quot;&gt;&lt;rect&gt;&lt;/rect&gt;&lt;foreignObject width=&quot;27.359375&quot; height=&quot;24&quot;&gt;&lt;div xmlns=&quot;http://www.w3.org/1999/xhtml&quot; style=&quot;display: table-cell; white-space: nowrap; line-height: 1.5; max-width: 200px; text-align: center;&quot;&gt;&lt;span class=&quot;nodeLabel&quot;&gt;&lt;p&gt;End&lt;/p&gt;&lt;/span&gt;&lt;/div&gt;&lt;/foreignObject&gt;&lt;/g&gt;&lt;/g&gt;&lt;g class=&quot;node default&quot; id=&quot;flowchart-U3-18&quot; transform=&quot;translate(678.1015625, 746.078125)&quot;&gt;&lt;rect class=&quot;basic label-container&quot; style=&quot;&quot; x=&quot;-130&quot; y=&quot;-39&quot; width=&quot;260&quot; height=&quot;78&quot;&gt;&lt;/rect&gt;&lt;g class=&quot;label&quot; style=&quot;&quot; transform=&quot;translate(-100, -24)&quot;&gt;&lt;rect&gt;&lt;/rect&gt;&lt;foreignObject width=&quot;200&quot; height=&quot;48&quot;&gt;&lt;div xmlns=&quot;http://www.w3.org/1999/xhtml&quot; style=&quot;display: table; white-space: break-spaces; line-height: 1.5; max-width: 200px; text-align: center; width: 200px;&quot;&gt;&lt;span class=&quot;nodeLabel&quot;&gt;&lt;p&gt;Display Error: Insufficient Funds&lt;/p&gt;&lt;/span&gt;&lt;/div&gt;&lt;/foreignObject&gt;&lt;/g&gt;&lt;/g&gt;&lt;g class=&quot;node default&quot; id=&quot;flowchart-decision2-20&quot; transform=&quot;translate(760.6015625, 909.5078125)&quot;&gt;&lt;polygon points=&quot;49.4296875,0 98.859375,-49.4296875 49.4296875,-98.859375 0,-49.4296875&quot; class=&quot;label-container&quot; transform=&quot;translate(-49.4296875,49.4296875)&quot;&gt;&lt;/polygon&gt;&lt;g class=&quot;label&quot; style=&quot;&quot; transform=&quot;translate(-22.4296875, -12)&quot;&gt;&lt;rect&gt;&lt;/rect&gt;&lt;foreignObject width=&quot;44.859375&quot; height=&quot;24&quot;&gt;&lt;div xmlns=&quot;http://www.w3.org/1999/xhtml&quot; style=&quot;display: table-cell; white-space: nowrap; line-height: 1.5; max-width: 200px; text-align: center;&quot;&gt;&lt;span class=&quot;nodeLabel&quot;&gt;&lt;p&gt;Retry?&lt;/p&gt;&lt;/span&gt;&lt;/div&gt;&lt;/foreignObject&gt;&lt;/g&gt;&lt;/g&gt;&lt;g class=&quot;node default&quot; id=&quot;flowchart-end2-24&quot; transform=&quot;translate(760.6015625, 1084.9375)&quot;&gt;&lt;rect class=&quot;basic label-container&quot; style=&quot;&quot; rx=&quot;19.5&quot; ry=&quot;19.5&quot; x=&quot;-26.0546875&quot; y=&quot;-19.5&quot; width=&quot;52.109375&quot; height=&quot;39&quot;&gt;&lt;/rect&gt;&lt;g class=&quot;label&quot; style=&quot;&quot; transform=&quot;translate(-13.6796875, -12)&quot;&gt;&lt;rect&gt;&lt;/rect&gt;&lt;foreignObject width=&quot;27.359375&quot; height=&quot;24&quot;&gt;&lt;div xmlns=&quot;http://www.w3.org/1999/xhtml&quot; style=&quot;display: table-cell; white-space: nowrap; line-height: 1.5; max-width: 200px; text-align: center;&quot;&gt;&lt;span class=&quot;nodeLabel&quot;&gt;&lt;p&gt;End&lt;/p&gt;&lt;/span&gt;&lt;/div&gt;&lt;/foreignObject&gt;&lt;/g&gt;&lt;/g&gt;&lt;g class=&quot;node default actor&quot; id=&quot;flowchart-actorU-0&quot; transform=&quot;translate(550.12109375, 1340.9375)&quot;&gt;&lt;circle class=&quot;basic label-container&quot; style=&quot;fill:#ffd700 !important;stroke:#000 !important&quot; r=&quot;23.9453125&quot; cx=&quot;0&quot; cy=&quot;0&quot;&gt;&lt;/circle&gt;&lt;g class=&quot;label&quot; style=&quot;&quot; transform=&quot;translate(-16.4453125, -12)&quot;&gt;&lt;rect&gt;&lt;/rect&gt;&lt;foreignObject width=&quot;32.890625&quot; height=&quot;24&quot;&gt;&lt;div xmlns=&quot;http://www.w3.org/1999/xhtml&quot; style=&quot;display: table-cell; white-space: nowrap; line-height: 1.5; max-width: 200px; text-align: center;&quot;&gt;&lt;span class=&quot;nodeLabel&quot;&gt;&lt;p&gt;User&lt;/p&gt;&lt;/span&gt;&lt;/div&gt;&lt;/foreignObject&gt;&lt;/g&gt;&lt;/g&gt;&lt;g class=&quot;node default actor&quot; id=&quot;flowchart-actorT-1&quot; transform=&quot;translate(701.79296875, 1340.9375)&quot;&gt;&lt;circle class=&quot;basic label-container&quot; style=&quot;fill:#ffd700 !important;stroke:#000 !important&quot; r=&quot;77.7265625&quot; cx=&quot;0&quot; cy=&quot;0&quot;&gt;&lt;/circle&gt;&lt;g class=&quot;label&quot; style=&quot;&quot; transform=&quot;translate(-70.2265625, -12)&quot;&gt;&lt;rect&gt;&lt;/rect&gt;&lt;foreignObject width=&quot;140.453125&quot; height=&quot;24&quot;&gt;&lt;div xmlns=&quot;http://www.w3.org/1999/xhtml&quot; style=&quot;display: table-cell; white-space: nowrap; line-height: 1.5; max-width: 200px; text-align: center;&quot;&gt;&lt;span class=&quot;nodeLabel&quot;&gt;&lt;p&gt;Transaction Service&lt;/p&gt;&lt;/span&gt;&lt;/div&gt;&lt;/foreignObject&gt;&lt;/g&gt;&lt;/g&gt;&lt;/g&gt;&lt;/g&gt;&lt;/g&gt;&lt;/g&gt;&lt;/g&gt;&lt;/svg&gt;" id="hirIrP60axqZAuuEfvug-1">
          <mxCell style="text;whiteSpace=wrap;html=1;" vertex="1" parent="1">
            <mxGeometry x="40" y="40" width="560" height="1570" as="geometry" />
          </mxCell>
        </UserObject>
        <UserObject label="&lt;svg id=&quot;container&quot; width=&quot;1173.33203125&quot; xmlns=&quot;http://www.w3.org/2000/svg&quot; class=&quot;flowchart&quot; height=&quot;1258.84375&quot; viewBox=&quot;0 0 1173.33203125 1258.84375&quot; role=&quot;graphics-document document&quot; aria-roledescription=&quot;flowchart-v2&quot;&gt;&lt;style&gt;#container{font-family:&quot;trebuchet ms&quot;,verdana,arial,sans-serif;font-size:16px;fill:#000000;}#container .error-icon{fill:#552222;}#container .error-text{fill:#552222;stroke:#552222;}#container .edge-thickness-normal{stroke-width:1px;}#container .edge-thickness-thick{stroke-width:3.5px;}#container .edge-pattern-solid{stroke-dasharray:0;}#container .edge-thickness-invisible{stroke-width:0;fill:none;}#container .edge-pattern-dashed{stroke-dasharray:3;}#container .edge-pattern-dotted{stroke-dasharray:2;}#container .marker{fill:#666;stroke:#666;}#container .marker.cross{stroke:#666;}#container svg{font-family:&quot;trebuchet ms&quot;,verdana,arial,sans-serif;font-size:16px;}#container p{margin:0;}#container .label{font-family:&quot;trebuchet ms&quot;,verdana,arial,sans-serif;color:#000000;}#container .cluster-label text{fill:#333;}#container .cluster-label span{color:#333;}#container .cluster-label span p{background-color:transparent;}#container .label text,#container span{fill:#000000;color:#000000;}#container .node rect,#container .node circle,#container .node ellipse,#container .node polygon,#container .node path{fill:#eee;stroke:#999;stroke-width:1px;}#container .rough-node .label text,#container .node .label text,#container .image-shape .label,#container .icon-shape .label{text-anchor:middle;}#container .node .katex path{fill:#000;stroke:#000;stroke-width:1px;}#container .rough-node .label,#container .node .label,#container .image-shape .label,#container .icon-shape .label{text-align:center;}#container .node.clickable{cursor:pointer;}#container .root .anchor path{fill:#666!important;stroke-width:0;stroke:#666;}#container .arrowheadPath{fill:#333333;}#container .edgePath .path{stroke:#666;stroke-width:2.0px;}#container .flowchart-link{stroke:#666;fill:none;}#container .edgeLabel{background-color:white;text-align:center;}#container .edgeLabel p{background-color:white;}#container .edgeLabel rect{opacity:0.5;background-color:white;fill:white;}#container .labelBkg{background-color:rgba(255, 255, 255, 0.5);}#container .cluster rect{fill:hsl(0, 0%, 98.9215686275%);stroke:#707070;stroke-width:1px;}#container .cluster text{fill:#333;}#container .cluster span{color:#333;}#container div.mermaidTooltip{position:absolute;text-align:center;max-width:200px;padding:2px;font-family:&quot;trebuchet ms&quot;,verdana,arial,sans-serif;font-size:12px;background:hsl(-160, 0%, 93.3333333333%);border:1px solid #707070;border-radius:2px;pointer-events:none;z-index:100;}#container .flowchartTitleText{text-anchor:middle;font-size:18px;fill:#000000;}#container rect.text{fill:none;stroke-width:0;}#container .icon-shape,#container .image-shape{background-color:white;text-align:center;}#container .icon-shape p,#container .image-shape p{background-color:white;padding:2px;}#container .icon-shape rect,#container .image-shape rect{opacity:0.5;background-color:white;fill:white;}#container :root{--mermaid-font-family:&quot;trebuchet ms&quot;,verdana,arial,sans-serif;}#container .actor&amp;gt;*{fill:#ffd700!important;stroke:#000!important;}#container .actor span{fill:#ffd700!important;stroke:#000!important;}#container .swimlane&amp;gt;*{fill:#e0e0e0!important;stroke:#666!important;stroke-width:2px!important;}#container .swimlane span{fill:#e0e0e0!important;stroke:#666!important;stroke-width:2px!important;}&lt;/style&gt;&lt;g&gt;&lt;marker id=&quot;container_flowchart-v2-pointEnd&quot; class=&quot;marker flowchart-v2&quot; viewBox=&quot;0 0 10 10&quot; refX=&quot;5&quot; refY=&quot;5&quot; markerUnits=&quot;userSpaceOnUse&quot; markerWidth=&quot;8&quot; markerHeight=&quot;8&quot; orient=&quot;auto&quot;&gt;&lt;path d=&quot;M 0 0 L 10 5 L 0 10 z&quot; class=&quot;arrowMarkerPath&quot; style=&quot;stroke-width: 1; stroke-dasharray: 1, 0;&quot;&gt;&lt;/path&gt;&lt;/marker&gt;&lt;marker id=&quot;container_flowchart-v2-pointStart&quot; class=&quot;marker flowchart-v2&quot; viewBox=&quot;0 0 10 10&quot; refX=&quot;4.5&quot; refY=&quot;5&quot; markerUnits=&quot;userSpaceOnUse&quot; markerWidth=&quot;8&quot; markerHeight=&quot;8&quot; orient=&quot;auto&quot;&gt;&lt;path d=&quot;M 0 5 L 10 10 L 10 0 z&quot; class=&quot;arrowMarkerPath&quot; style=&quot;stroke-width: 1; stroke-dasharray: 1, 0;&quot;&gt;&lt;/path&gt;&lt;/marker&gt;&lt;marker id=&quot;container_flowchart-v2-circleEnd&quot; class=&quot;marker flowchart-v2&quot; viewBox=&quot;0 0 10 10&quot; refX=&quot;11&quot; refY=&quot;5&quot; markerUnits=&quot;userSpaceOnUse&quot; markerWidth=&quot;11&quot; markerHeight=&quot;11&quot; orient=&quot;auto&quot;&gt;&lt;circle cx=&quot;5&quot; cy=&quot;5&quot; r=&quot;5&quot; class=&quot;arrowMarkerPath&quot; style=&quot;stroke-width: 1; stroke-dasharray: 1, 0;&quot;&gt;&lt;/circle&gt;&lt;/marker&gt;&lt;marker id=&quot;container_flowchart-v2-circleStart&quot; class=&quot;marker flowchart-v2&quot; viewBox=&quot;0 0 10 10&quot; refX=&quot;-1&quot; refY=&quot;5&quot; markerUnits=&quot;userSpaceOnUse&quot; markerWidth=&quot;11&quot; markerHeight=&quot;11&quot; orient=&quot;auto&quot;&gt;&lt;circle cx=&quot;5&quot; cy=&quot;5&quot; r=&quot;5&quot; class=&quot;arrowMarkerPath&quot; style=&quot;stroke-width: 1; stroke-dasharray: 1, 0;&quot;&gt;&lt;/circle&gt;&lt;/marker&gt;&lt;marker id=&quot;container_flowchart-v2-crossEnd&quot; class=&quot;marker cross flowchart-v2&quot; viewBox=&quot;0 0 11 11&quot; refX=&quot;12&quot; refY=&quot;5.2&quot; markerUnits=&quot;userSpaceOnUse&quot; markerWidth=&quot;11&quot; markerHeight=&quot;11&quot; orient=&quot;auto&quot;&gt;&lt;path d=&quot;M 1,1 l 9,9 M 10,1 l -9,9&quot; class=&quot;arrowMarkerPath&quot; style=&quot;stroke-width: 2; stroke-dasharray: 1, 0;&quot;&gt;&lt;/path&gt;&lt;/marker&gt;&lt;marker id=&quot;container_flowchart-v2-crossStart&quot; class=&quot;marker cross flowchart-v2&quot; viewBox=&quot;0 0 11 11&quot; refX=&quot;-1&quot; refY=&quot;5.2&quot; markerUnits=&quot;userSpaceOnUse&quot; markerWidth=&quot;11&quot; markerHeight=&quot;11&quot; orient=&quot;auto&quot;&gt;&lt;path d=&quot;M 1,1 l 9,9 M 10,1 l -9,9&quot; class=&quot;arrowMarkerPath&quot; style=&quot;stroke-width: 2; stroke-dasharray: 1, 0;&quot;&gt;&lt;/path&gt;&lt;/marker&gt;&lt;g class=&quot;root&quot;&gt;&lt;g class=&quot;clusters&quot;&gt;&lt;/g&gt;&lt;g class=&quot;edgePaths&quot;&gt;&lt;/g&gt;&lt;g class=&quot;edgeLabels&quot;&gt;&lt;/g&gt;&lt;g class=&quot;nodes&quot;&gt;&lt;g class=&quot;root&quot; transform=&quot;translate(0, 0)&quot;&gt;&lt;g class=&quot;clusters&quot;&gt;&lt;g class=&quot;cluster&quot; id=&quot;subGraph1&quot; data-look=&quot;classic&quot;&gt;&lt;rect style=&quot;&quot; x=&quot;8&quot; y=&quot;8&quot; width=&quot;1157.33203125&quot; height=&quot;1242.84375&quot;&gt;&lt;/rect&gt;&lt;g class=&quot;cluster-label&quot; transform=&quot;translate(514.494140625, 8)&quot;&gt;&lt;foreignObject width=&quot;144.34375&quot; height=&quot;24&quot;&gt;&lt;div xmlns=&quot;http://www.w3.org/1999/xhtml&quot; style=&quot;display: table-cell; white-space: nowrap; line-height: 1.5; max-width: 200px; text-align: center;&quot;&gt;&lt;span class=&quot;nodeLabel&quot;&gt;&lt;p&gt;User Authentication&lt;/p&gt;&lt;/span&gt;&lt;/div&gt;&lt;/foreignObject&gt;&lt;/g&gt;&lt;/g&gt;&lt;g class=&quot;cluster&quot; id=&quot;Swimlanes&quot; data-look=&quot;classic&quot;&gt;&lt;rect style=&quot;&quot; x=&quot;28&quot; y=&quot;45.5&quot; width=&quot;471.09375&quot; height=&quot;282&quot;&gt;&lt;/rect&gt;&lt;g class=&quot;cluster-label&quot; transform=&quot;translate(224.8984375, 45.5)&quot;&gt;&lt;foreignObject width=&quot;77.296875&quot; height=&quot;24&quot;&gt;&lt;div xmlns=&quot;http://www.w3.org/1999/xhtml&quot; style=&quot;display: table-cell; white-space: nowrap; line-height: 1.5; max-width: 200px; text-align: center;&quot;&gt;&lt;span class=&quot;nodeLabel&quot;&gt;&lt;p&gt;Swimlanes&lt;/p&gt;&lt;/span&gt;&lt;/div&gt;&lt;/foreignObject&gt;&lt;/g&gt;&lt;/g&gt;&lt;/g&gt;&lt;g class=&quot;edgePaths&quot;&gt;&lt;path d=&quot;M222.238,137L214.325,145.25C206.411,153.5,190.585,170,182.671,185.833C174.758,201.667,174.758,216.833,174.758,224.417L174.758,232&quot; id=&quot;L_U_A_0&quot; class=&quot;edge-thickness-normal edge-pattern-solid edge-thickness-normal edge-pattern-solid flowchart-link&quot; style=&quot;&quot; marker-end=&quot;url(#container_flowchart-v2-pointEnd)&quot;&gt;&lt;/path&gt;&lt;path d=&quot;M321.516,1104.586L321.516,1084.71C321.516,1064.833,321.516,1025.081,321.516,988.716C321.516,952.352,321.516,919.375,321.516,888.398C321.516,857.422,321.516,828.445,321.516,801.207C321.516,773.969,321.516,748.469,321.516,720.969C321.516,693.469,321.516,663.969,321.516,625.763C321.516,587.557,321.516,540.646,321.516,495.734C321.516,450.823,321.516,407.911,321.516,380.206C321.516,352.5,321.516,340,321.516,323C321.516,306,321.516,284.5,321.516,261C321.516,237.5,321.516,212,314.064,191.481C306.612,170.962,291.708,155.424,284.256,147.656L276.804,139.887&quot; id=&quot;L_start_U_1&quot; class=&quot;edge-thickness-normal edge-pattern-solid edge-thickness-normal edge-pattern-solid flowchart-link&quot; style=&quot;&quot; marker-end=&quot;url(#container_flowchart-v2-pointEnd)&quot;&gt;&lt;/path&gt;&lt;path d=&quot;M294.582,131.91L313.869,141.008C333.156,150.107,371.73,168.303,413.074,185.424C454.418,202.544,498.532,218.589,520.589,226.611L542.645,234.633&quot; id=&quot;L_U_A1_2&quot; class=&quot;edge-thickness-normal edge-pattern-solid edge-thickness-normal edge-pattern-solid flowchart-link&quot; style=&quot;&quot; marker-end=&quot;url(#container_flowchart-v2-pointEnd)&quot;&gt;&lt;/path&gt;&lt;path d=&quot;M620.641,290L620.641,296.25C620.641,302.5,620.641,315,620.641,327.5C620.641,340,620.641,352.5,620.715,364.417C620.79,376.333,620.939,387.667,621.013,393.334L621.088,399&quot; id=&quot;L_A1_decision1_3&quot; class=&quot;edge-thickness-normal edge-pattern-solid edge-thickness-normal edge-pattern-solid flowchart-link&quot; style=&quot;&quot; marker-end=&quot;url(#container_flowchart-v2-pointEnd)&quot;&gt;&lt;/path&gt;&lt;path d=&quot;M678.364,528.245L708.209,545.949C738.053,563.653,797.741,599.061,827.585,626.348C857.43,653.635,857.43,672.802,857.43,682.385L857.43,691.969&quot; id=&quot;L_decision1_A2_4&quot; class=&quot;edge-thickness-normal edge-pattern-solid edge-thickness-normal edge-pattern-solid flowchart-link&quot; style=&quot;&quot; marker-end=&quot;url(#container_flowchart-v2-pointEnd)&quot;&gt;&lt;/path&gt;&lt;path d=&quot;M857.43,749.969L857.43,758.219C857.43,766.469,857.43,782.969,857.43,800.54C857.43,818.112,857.43,836.755,857.43,846.077L857.43,855.398&quot; id=&quot;L_A2_U2_5&quot; class=&quot;edge-thickness-normal edge-pattern-solid edge-thickness-normal edge-pattern-solid flowchart-link&quot; style=&quot;&quot; marker-end=&quot;url(#container_flowchart-v2-pointEnd)&quot;&gt;&lt;/path&gt;&lt;path d=&quot;M807.849,913.398L785.834,925.387C763.82,937.375,719.791,961.352,697.776,992.549C675.762,1023.747,675.762,1062.167,675.762,1081.376L675.762,1100.586&quot; id=&quot;L_U2_end1_6&quot; class=&quot;edge-thickness-normal edge-pattern-solid edge-thickness-normal edge-pattern-solid flowchart-link&quot; style=&quot;&quot; marker-end=&quot;url(#container_flowchart-v2-pointEnd)&quot;&gt;&lt;/path&gt;&lt;path d=&quot;M605.324,569.652L602.957,580.455C600.591,591.257,595.858,612.863,593.491,631.249C591.125,649.635,591.125,664.802,591.125,672.385L591.125,679.969&quot; id=&quot;L_decision1_U3_7&quot; class=&quot;edge-thickness-normal edge-pattern-solid edge-thickness-normal edge-pattern-solid flowchart-link&quot; style=&quot;&quot; marker-end=&quot;url(#container_flowchart-v2-pointEnd)&quot;&gt;&lt;/path&gt;&lt;path d=&quot;M591.125,761.969L591.125,768.219C591.125,774.469,591.125,786.969,591.2,798.885C591.274,810.802,591.423,822.136,591.498,827.802L591.572,833.469&quot; id=&quot;L_U3_decision2_8&quot; class=&quot;edge-thickness-normal edge-pattern-solid edge-thickness-normal edge-pattern-solid flowchart-link&quot; style=&quot;&quot; marker-end=&quot;url(#container_flowchart-v2-pointEnd)&quot;&gt;&lt;/path&gt;&lt;path d=&quot;M566.289,910.992L553.09,923.381C539.891,935.771,513.492,960.549,477.086,992.387C440.679,1024.224,394.265,1063.121,371.058,1082.569L347.851,1102.017&quot; id=&quot;L_decision2_start_9&quot; class=&quot;edge-thickness-normal edge-pattern-solid edge-thickness-normal edge-pattern-solid flowchart-link&quot; style=&quot;&quot; marker-end=&quot;url(#container_flowchart-v2-pointEnd)&quot;&gt;&lt;/path&gt;&lt;path d=&quot;M623.937,904.016L649.593,917.568C675.248,931.12,726.56,958.224,752.215,990.986C777.871,1023.747,777.871,1062.167,777.871,1081.376L777.871,1100.586&quot; id=&quot;L_decision2_end2_10&quot; class=&quot;edge-thickness-normal edge-pattern-solid edge-thickness-normal edge-pattern-solid flowchart-link&quot; style=&quot;&quot; marker-end=&quot;url(#container_flowchart-v2-pointEnd)&quot;&gt;&lt;/path&gt;&lt;/g&gt;&lt;g class=&quot;edgeLabels&quot;&gt;&lt;g class=&quot;edgeLabel&quot;&gt;&lt;g class=&quot;label&quot; transform=&quot;translate(0, 0)&quot;&gt;&lt;foreignObject width=&quot;0&quot; height=&quot;0&quot;&gt;&lt;div xmlns=&quot;http://www.w3.org/1999/xhtml&quot; class=&quot;labelBkg&quot; style=&quot;display: table-cell; white-space: nowrap; line-height: 1.5; max-width: 200px; text-align: center;&quot;&gt;&lt;span class=&quot;edgeLabel&quot;&gt;&lt;/span&gt;&lt;/div&gt;&lt;/foreignObject&gt;&lt;/g&gt;&lt;/g&gt;&lt;g class=&quot;edgeLabel&quot;&gt;&lt;g class=&quot;label&quot; transform=&quot;translate(0, 0)&quot;&gt;&lt;foreignObject width=&quot;0&quot; height=&quot;0&quot;&gt;&lt;div xmlns=&quot;http://www.w3.org/1999/xhtml&quot; class=&quot;labelBkg&quot; style=&quot;display: table-cell; white-space: nowrap; line-height: 1.5; max-width: 200px; text-align: center;&quot;&gt;&lt;span class=&quot;edgeLabel&quot;&gt;&lt;/span&gt;&lt;/div&gt;&lt;/foreignObject&gt;&lt;/g&gt;&lt;/g&gt;&lt;g class=&quot;edgeLabel&quot; transform=&quot;translate(410.3046875, 186.5)&quot;&gt;&lt;g class=&quot;label&quot; transform=&quot;translate(-68.7890625, -12)&quot;&gt;&lt;foreignObject width=&quot;137.578125&quot; height=&quot;24&quot;&gt;&lt;div xmlns=&quot;http://www.w3.org/1999/xhtml&quot; class=&quot;labelBkg&quot; style=&quot;display: table-cell; white-space: nowrap; line-height: 1.5; max-width: 200px; text-align: center;&quot;&gt;&lt;span class=&quot;edgeLabel&quot;&gt;&lt;p&gt;Submit Credentials&lt;/p&gt;&lt;/span&gt;&lt;/div&gt;&lt;/foreignObject&gt;&lt;/g&gt;&lt;/g&gt;&lt;g class=&quot;edgeLabel&quot;&gt;&lt;g class=&quot;label&quot; transform=&quot;translate(0, 0)&quot;&gt;&lt;foreignObject width=&quot;0&quot; height=&quot;0&quot;&gt;&lt;div xmlns=&quot;http://www.w3.org/1999/xhtml&quot; class=&quot;labelBkg&quot; style=&quot;display: table-cell; white-space: nowrap; line-height: 1.5; max-width: 200px; text-align: center;&quot;&gt;&lt;span class=&quot;edgeLabel&quot;&gt;&lt;/span&gt;&lt;/div&gt;&lt;/foreignObject&gt;&lt;/g&gt;&lt;/g&gt;&lt;g class=&quot;edgeLabel&quot; transform=&quot;translate(857.4296875, 634.46875)&quot;&gt;&lt;g class=&quot;label&quot; transform=&quot;translate(-12.03125, -12)&quot;&gt;&lt;foreignObject width=&quot;24.0625&quot; height=&quot;24&quot;&gt;&lt;div xmlns=&quot;http://www.w3.org/1999/xhtml&quot; class=&quot;labelBkg&quot; style=&quot;display: table-cell; white-space: nowrap; line-height: 1.5; max-width: 200px; text-align: center;&quot;&gt;&lt;span class=&quot;edgeLabel&quot;&gt;&lt;p&gt;Yes&lt;/p&gt;&lt;/span&gt;&lt;/div&gt;&lt;/foreignObject&gt;&lt;/g&gt;&lt;/g&gt;&lt;g class=&quot;edgeLabel&quot;&gt;&lt;g class=&quot;label&quot; transform=&quot;translate(0, 0)&quot;&gt;&lt;foreignObject width=&quot;0&quot; height=&quot;0&quot;&gt;&lt;div xmlns=&quot;http://www.w3.org/1999/xhtml&quot; class=&quot;labelBkg&quot; style=&quot;display: table-cell; white-space: nowrap; line-height: 1.5; max-width: 200px; text-align: center;&quot;&gt;&lt;span class=&quot;edgeLabel&quot;&gt;&lt;/span&gt;&lt;/div&gt;&lt;/foreignObject&gt;&lt;/g&gt;&lt;/g&gt;&lt;g class=&quot;edgeLabel&quot;&gt;&lt;g class=&quot;label&quot; transform=&quot;translate(0, 0)&quot;&gt;&lt;foreignObject width=&quot;0&quot; height=&quot;0&quot;&gt;&lt;div xmlns=&quot;http://www.w3.org/1999/xhtml&quot; class=&quot;labelBkg&quot; style=&quot;display: table-cell; white-space: nowrap; line-height: 1.5; max-width: 200px; text-align: center;&quot;&gt;&lt;span class=&quot;edgeLabel&quot;&gt;&lt;/span&gt;&lt;/div&gt;&lt;/foreignObject&gt;&lt;/g&gt;&lt;/g&gt;&lt;g class=&quot;edgeLabel&quot; transform=&quot;translate(591.125, 634.46875)&quot;&gt;&lt;g class=&quot;label&quot; transform=&quot;translate(-10.140625, -12)&quot;&gt;&lt;foreignObject width=&quot;20.28125&quot; height=&quot;24&quot;&gt;&lt;div xmlns=&quot;http://www.w3.org/1999/xhtml&quot; class=&quot;labelBkg&quot; style=&quot;display: table-cell; white-space: nowrap; line-height: 1.5; max-width: 200px; text-align: center;&quot;&gt;&lt;span class=&quot;edgeLabel&quot;&gt;&lt;p&gt;No&lt;/p&gt;&lt;/span&gt;&lt;/div&gt;&lt;/foreignObject&gt;&lt;/g&gt;&lt;/g&gt;&lt;g class=&quot;edgeLabel&quot;&gt;&lt;g class=&quot;label&quot; transform=&quot;translate(0, 0)&quot;&gt;&lt;foreignObject width=&quot;0&quot; height=&quot;0&quot;&gt;&lt;div xmlns=&quot;http://www.w3.org/1999/xhtml&quot; class=&quot;labelBkg&quot; style=&quot;display: table-cell; white-space: nowrap; line-height: 1.5; max-width: 200px; text-align: center;&quot;&gt;&lt;span class=&quot;edgeLabel&quot;&gt;&lt;/span&gt;&lt;/div&gt;&lt;/foreignObject&gt;&lt;/g&gt;&lt;/g&gt;&lt;g class=&quot;edgeLabel&quot; transform=&quot;translate(487.09375, 985.328125)&quot;&gt;&lt;g class=&quot;label&quot; transform=&quot;translate(-12.03125, -12)&quot;&gt;&lt;foreignObject width=&quot;24.0625&quot; height=&quot;24&quot;&gt;&lt;div xmlns=&quot;http://www.w3.org/1999/xhtml&quot; class=&quot;labelBkg&quot; style=&quot;display: table-cell; white-space: nowrap; line-height: 1.5; max-width: 200px; text-align: center;&quot;&gt;&lt;span class=&quot;edgeLabel&quot;&gt;&lt;p&gt;Yes&lt;/p&gt;&lt;/span&gt;&lt;/div&gt;&lt;/foreignObject&gt;&lt;/g&gt;&lt;/g&gt;&lt;g class=&quot;edgeLabel&quot; transform=&quot;translate(777.87109375, 985.328125)&quot;&gt;&lt;g class=&quot;label&quot; transform=&quot;translate(-10.140625, -12)&quot;&gt;&lt;foreignObject width=&quot;20.28125&quot; height=&quot;24&quot;&gt;&lt;div xmlns=&quot;http://www.w3.org/1999/xhtml&quot; class=&quot;labelBkg&quot; style=&quot;display: table-cell; white-space: nowrap; line-height: 1.5; max-width: 200px; text-align: center;&quot;&gt;&lt;span class=&quot;edgeLabel&quot;&gt;&lt;p&gt;No&lt;/p&gt;&lt;/span&gt;&lt;/div&gt;&lt;/foreignObject&gt;&lt;/g&gt;&lt;/g&gt;&lt;/g&gt;&lt;g class=&quot;nodes&quot;&gt;&lt;g class=&quot;node default swimlane&quot; id=&quot;flowchart-U-2&quot; transform=&quot;translate(248.13671875, 110)&quot;&gt;&lt;rect class=&quot;basic label-container&quot; style=&quot;fill:#e0e0e0 !important;stroke:#666 !important;stroke-width:2px !important&quot; x=&quot;-46.4453125&quot; y=&quot;-27&quot; width=&quot;92.890625&quot; height=&quot;54&quot;&gt;&lt;/rect&gt;&lt;g class=&quot;label&quot; style=&quot;&quot; transform=&quot;translate(-16.4453125, -12)&quot;&gt;&lt;rect&gt;&lt;/rect&gt;&lt;foreignObject width=&quot;32.890625&quot; height=&quot;24&quot;&gt;&lt;div xmlns=&quot;http://www.w3.org/1999/xhtml&quot; style=&quot;display: table-cell; white-space: nowrap; line-height: 1.5; max-width: 200px; text-align: center;&quot;&gt;&lt;span class=&quot;nodeLabel&quot;&gt;&lt;p&gt;User&lt;/p&gt;&lt;/span&gt;&lt;/div&gt;&lt;/foreignObject&gt;&lt;/g&gt;&lt;/g&gt;&lt;g class=&quot;node default swimlane&quot; id=&quot;flowchart-A-3&quot; transform=&quot;translate(174.7578125, 263)&quot;&gt;&lt;rect class=&quot;basic label-container&quot; style=&quot;fill:#e0e0e0 !important;stroke:#666 !important;stroke-width:2px !important&quot; x=&quot;-111.7578125&quot; y=&quot;-27&quot; width=&quot;223.515625&quot; height=&quot;54&quot;&gt;&lt;/rect&gt;&lt;g class=&quot;label&quot; style=&quot;&quot; transform=&quot;translate(-81.7578125, -12)&quot;&gt;&lt;rect&gt;&lt;/rect&gt;&lt;foreignObject width=&quot;163.515625&quot; height=&quot;24&quot;&gt;&lt;div xmlns=&quot;http://www.w3.org/1999/xhtml&quot; style=&quot;display: table-cell; white-space: nowrap; line-height: 1.5; max-width: 200px; text-align: center;&quot;&gt;&lt;span class=&quot;nodeLabel&quot;&gt;&lt;p&gt;Authentication Service&lt;/p&gt;&lt;/span&gt;&lt;/div&gt;&lt;/foreignObject&gt;&lt;/g&gt;&lt;/g&gt;&lt;g class=&quot;node default&quot; id=&quot;flowchart-start-6&quot; transform=&quot;translate(321.515625, 1124.0859375)&quot;&gt;&lt;rect class=&quot;basic label-container&quot; style=&quot;&quot; rx=&quot;19.5&quot; ry=&quot;19.5&quot; x=&quot;-29.8984375&quot; y=&quot;-19.5&quot; width=&quot;59.796875&quot; height=&quot;39&quot;&gt;&lt;/rect&gt;&lt;g class=&quot;label&quot; style=&quot;&quot; transform=&quot;translate(-17.5234375, -12)&quot;&gt;&lt;rect&gt;&lt;/rect&gt;&lt;foreignObject width=&quot;35.046875&quot; height=&quot;24&quot;&gt;&lt;div xmlns=&quot;http://www.w3.org/1999/xhtml&quot; style=&quot;display: table-cell; white-space: nowrap; line-height: 1.5; max-width: 200px; text-align: center;&quot;&gt;&lt;span class=&quot;nodeLabel&quot;&gt;&lt;p&gt;Start&lt;/p&gt;&lt;/span&gt;&lt;/div&gt;&lt;/foreignObject&gt;&lt;/g&gt;&lt;/g&gt;&lt;g class=&quot;node default&quot; id=&quot;flowchart-A1-9&quot; transform=&quot;translate(620.640625, 263)&quot;&gt;&lt;rect class=&quot;basic label-container&quot; style=&quot;&quot; x=&quot;-86.546875&quot; y=&quot;-27&quot; width=&quot;173.09375&quot; height=&quot;54&quot;&gt;&lt;/rect&gt;&lt;g class=&quot;label&quot; style=&quot;&quot; transform=&quot;translate(-56.546875, -12)&quot;&gt;&lt;rect&gt;&lt;/rect&gt;&lt;foreignObject width=&quot;113.09375&quot; height=&quot;24&quot;&gt;&lt;div xmlns=&quot;http://www.w3.org/1999/xhtml&quot; style=&quot;display: table-cell; white-space: nowrap; line-height: 1.5; max-width: 200px; text-align: center;&quot;&gt;&lt;span class=&quot;nodeLabel&quot;&gt;&lt;p&gt;Verify Password&lt;/p&gt;&lt;/span&gt;&lt;/div&gt;&lt;/foreignObject&gt;&lt;/g&gt;&lt;/g&gt;&lt;g class=&quot;node default&quot; id=&quot;flowchart-decision1-11&quot; transform=&quot;translate(620.640625, 493.734375)&quot;&gt;&lt;polygon points=&quot;91.234375,0 182.46875,-91.234375 91.234375,-182.46875 0,-91.234375&quot; class=&quot;label-container&quot; transform=&quot;translate(-91.234375,91.234375)&quot;&gt;&lt;/polygon&gt;&lt;g class=&quot;label&quot; style=&quot;&quot; transform=&quot;translate(-64.234375, -12)&quot;&gt;&lt;rect&gt;&lt;/rect&gt;&lt;foreignObject width=&quot;128.46875&quot; height=&quot;24&quot;&gt;&lt;div xmlns=&quot;http://www.w3.org/1999/xhtml&quot; style=&quot;display: table-cell; white-space: nowrap; line-height: 1.5; max-width: 200px; text-align: center;&quot;&gt;&lt;span class=&quot;nodeLabel&quot;&gt;&lt;p&gt;Valid Credentials?&lt;/p&gt;&lt;/span&gt;&lt;/div&gt;&lt;/foreignObject&gt;&lt;/g&gt;&lt;/g&gt;&lt;g class=&quot;node default&quot; id=&quot;flowchart-A2-13&quot; transform=&quot;translate(857.4296875, 722.96875)&quot;&gt;&lt;rect class=&quot;basic label-container&quot; style=&quot;&quot; x=&quot;-86.3046875&quot; y=&quot;-27&quot; width=&quot;172.609375&quot; height=&quot;54&quot;&gt;&lt;/rect&gt;&lt;g class=&quot;label&quot; style=&quot;&quot; transform=&quot;translate(-56.3046875, -12)&quot;&gt;&lt;rect&gt;&lt;/rect&gt;&lt;foreignObject width=&quot;112.609375&quot; height=&quot;24&quot;&gt;&lt;div xmlns=&quot;http://www.w3.org/1999/xhtml&quot; style=&quot;display: table-cell; white-space: nowrap; line-height: 1.5; max-width: 200px; text-align: center;&quot;&gt;&lt;span class=&quot;nodeLabel&quot;&gt;&lt;p&gt;Generate Token&lt;/p&gt;&lt;/span&gt;&lt;/div&gt;&lt;/foreignObject&gt;&lt;/g&gt;&lt;/g&gt;&lt;g class=&quot;node default&quot; id=&quot;flowchart-U2-15&quot; transform=&quot;translate(857.4296875, 886.3984375)&quot;&gt;&lt;rect class=&quot;basic label-container&quot; style=&quot;&quot; x=&quot;-79.78125&quot; y=&quot;-27&quot; width=&quot;159.5625&quot; height=&quot;54&quot;&gt;&lt;/rect&gt;&lt;g class=&quot;label&quot; style=&quot;&quot; transform=&quot;translate(-49.78125, -12)&quot;&gt;&lt;rect&gt;&lt;/rect&gt;&lt;foreignObject width=&quot;99.5625&quot; height=&quot;24&quot;&gt;&lt;div xmlns=&quot;http://www.w3.org/1999/xhtml&quot; style=&quot;display: table-cell; white-space: nowrap; line-height: 1.5; max-width: 200px; text-align: center;&quot;&gt;&lt;span class=&quot;nodeLabel&quot;&gt;&lt;p&gt;Login Success&lt;/p&gt;&lt;/span&gt;&lt;/div&gt;&lt;/foreignObject&gt;&lt;/g&gt;&lt;/g&gt;&lt;g class=&quot;node default&quot; id=&quot;flowchart-end1-16&quot; transform=&quot;translate(675.76171875, 1124.0859375)&quot;&gt;&lt;rect class=&quot;basic label-container&quot; style=&quot;&quot; rx=&quot;19.5&quot; ry=&quot;19.5&quot; x=&quot;-26.0546875&quot; y=&quot;-19.5&quot; width=&quot;52.109375&quot; height=&quot;39&quot;&gt;&lt;/rect&gt;&lt;g class=&quot;label&quot; style=&quot;&quot; transform=&quot;translate(-13.6796875, -12)&quot;&gt;&lt;rect&gt;&lt;/rect&gt;&lt;foreignObject width=&quot;27.359375&quot; height=&quot;24&quot;&gt;&lt;div xmlns=&quot;http://www.w3.org/1999/xhtml&quot; style=&quot;display: table-cell; white-space: nowrap; line-height: 1.5; max-width: 200px; text-align: center;&quot;&gt;&lt;span class=&quot;nodeLabel&quot;&gt;&lt;p&gt;End&lt;/p&gt;&lt;/span&gt;&lt;/div&gt;&lt;/foreignObject&gt;&lt;/g&gt;&lt;/g&gt;&lt;g class=&quot;node default&quot; id=&quot;flowchart-U3-18&quot; transform=&quot;translate(591.125, 722.96875)&quot;&gt;&lt;rect class=&quot;basic label-container&quot; style=&quot;&quot; x=&quot;-130&quot; y=&quot;-39&quot; width=&quot;260&quot; height=&quot;78&quot;&gt;&lt;/rect&gt;&lt;g class=&quot;label&quot; style=&quot;&quot; transform=&quot;translate(-100, -24)&quot;&gt;&lt;rect&gt;&lt;/rect&gt;&lt;foreignObject width=&quot;200&quot; height=&quot;48&quot;&gt;&lt;div xmlns=&quot;http://www.w3.org/1999/xhtml&quot; style=&quot;display: table; white-space: break-spaces; line-height: 1.5; max-width: 200px; text-align: center; width: 200px;&quot;&gt;&lt;span class=&quot;nodeLabel&quot;&gt;&lt;p&gt;Display Error: Invalid Credentials&lt;/p&gt;&lt;/span&gt;&lt;/div&gt;&lt;/foreignObject&gt;&lt;/g&gt;&lt;/g&gt;&lt;g class=&quot;node default&quot; id=&quot;flowchart-decision2-20&quot; transform=&quot;translate(591.125, 886.3984375)&quot;&gt;&lt;polygon points=&quot;49.4296875,0 98.859375,-49.4296875 49.4296875,-98.859375 0,-49.4296875&quot; class=&quot;label-container&quot; transform=&quot;translate(-49.4296875,49.4296875)&quot;&gt;&lt;/polygon&gt;&lt;g class=&quot;label&quot; style=&quot;&quot; transform=&quot;translate(-22.4296875, -12)&quot;&gt;&lt;rect&gt;&lt;/rect&gt;&lt;foreignObject width=&quot;44.859375&quot; height=&quot;24&quot;&gt;&lt;div xmlns=&quot;http://www.w3.org/1999/xhtml&quot; style=&quot;display: table-cell; white-space: nowrap; line-height: 1.5; max-width: 200px; text-align: center;&quot;&gt;&lt;span class=&quot;nodeLabel&quot;&gt;&lt;p&gt;Retry?&lt;/p&gt;&lt;/span&gt;&lt;/div&gt;&lt;/foreignObject&gt;&lt;/g&gt;&lt;/g&gt;&lt;g class=&quot;node default&quot; id=&quot;flowchart-end2-24&quot; transform=&quot;translate(777.87109375, 1124.0859375)&quot;&gt;&lt;rect class=&quot;basic label-container&quot; style=&quot;&quot; rx=&quot;19.5&quot; ry=&quot;19.5&quot; x=&quot;-26.0546875&quot; y=&quot;-19.5&quot; width=&quot;52.109375&quot; height=&quot;39&quot;&gt;&lt;/rect&gt;&lt;g class=&quot;label&quot; style=&quot;&quot; transform=&quot;translate(-13.6796875, -12)&quot;&gt;&lt;rect&gt;&lt;/rect&gt;&lt;foreignObject width=&quot;27.359375&quot; height=&quot;24&quot;&gt;&lt;div xmlns=&quot;http://www.w3.org/1999/xhtml&quot; style=&quot;display: table-cell; white-space: nowrap; line-height: 1.5; max-width: 200px; text-align: center;&quot;&gt;&lt;span class=&quot;nodeLabel&quot;&gt;&lt;p&gt;End&lt;/p&gt;&lt;/span&gt;&lt;/div&gt;&lt;/foreignObject&gt;&lt;/g&gt;&lt;/g&gt;&lt;g class=&quot;node default actor&quot; id=&quot;flowchart-actorU-0&quot; transform=&quot;translate(877.87109375, 1124.0859375)&quot;&gt;&lt;circle class=&quot;basic label-container&quot; style=&quot;fill:#ffd700 !important;stroke:#000 !important&quot; r=&quot;23.9453125&quot; cx=&quot;0&quot; cy=&quot;0&quot;&gt;&lt;/circle&gt;&lt;g class=&quot;label&quot; style=&quot;&quot; transform=&quot;translate(-16.4453125, -12)&quot;&gt;&lt;rect&gt;&lt;/rect&gt;&lt;foreignObject width=&quot;32.890625&quot; height=&quot;24&quot;&gt;&lt;div xmlns=&quot;http://www.w3.org/1999/xhtml&quot; style=&quot;display: table-cell; white-space: nowrap; line-height: 1.5; max-width: 200px; text-align: center;&quot;&gt;&lt;span class=&quot;nodeLabel&quot;&gt;&lt;p&gt;User&lt;/p&gt;&lt;/span&gt;&lt;/div&gt;&lt;/foreignObject&gt;&lt;/g&gt;&lt;/g&gt;&lt;g class=&quot;node default actor&quot; id=&quot;flowchart-actorA-1&quot; transform=&quot;translate(1041.07421875, 1124.0859375)&quot;&gt;&lt;circle class=&quot;basic label-container&quot; style=&quot;fill:#ffd700 !important;stroke:#000 !important&quot; r=&quot;89.2578125&quot; cx=&quot;0&quot; cy=&quot;0&quot;&gt;&lt;/circle&gt;&lt;g class=&quot;label&quot; style=&quot;&quot; transform=&quot;translate(-81.7578125, -12)&quot;&gt;&lt;rect&gt;&lt;/rect&gt;&lt;foreignObject width=&quot;163.515625&quot; height=&quot;24&quot;&gt;&lt;div xmlns=&quot;http://www.w3.org/1999/xhtml&quot; style=&quot;display: table-cell; white-space: nowrap; line-height: 1.5; max-width: 200px; text-align: center;&quot;&gt;&lt;span class=&quot;nodeLabel&quot;&gt;&lt;p&gt;Authentication Service&lt;/p&gt;&lt;/span&gt;&lt;/div&gt;&lt;/foreignObject&gt;&lt;/g&gt;&lt;/g&gt;&lt;/g&gt;&lt;/g&gt;&lt;/g&gt;&lt;/g&gt;&lt;/g&gt;&lt;/svg&gt;" link="&lt;svg id=&quot;container&quot; width=&quot;1173.33203125&quot; xmlns=&quot;http://www.w3.org/2000/svg&quot; class=&quot;flowchart&quot; height=&quot;1258.84375&quot; viewBox=&quot;0 0 1173.33203125 1258.84375&quot; role=&quot;graphics-document document&quot; aria-roledescription=&quot;flowchart-v2&quot;&gt;&lt;style&gt;#container{font-family:&quot;trebuchet ms&quot;,verdana,arial,sans-serif;font-size:16px;fill:#000000;}#container .error-icon{fill:#552222;}#container .error-text{fill:#552222;stroke:#552222;}#container .edge-thickness-normal{stroke-width:1px;}#container .edge-thickness-thick{stroke-width:3.5px;}#container .edge-pattern-solid{stroke-dasharray:0;}#container .edge-thickness-invisible{stroke-width:0;fill:none;}#container .edge-pattern-dashed{stroke-dasharray:3;}#container .edge-pattern-dotted{stroke-dasharray:2;}#container .marker{fill:#666;stroke:#666;}#container .marker.cross{stroke:#666;}#container svg{font-family:&quot;trebuchet ms&quot;,verdana,arial,sans-serif;font-size:16px;}#container p{margin:0;}#container .label{font-family:&quot;trebuchet ms&quot;,verdana,arial,sans-serif;color:#000000;}#container .cluster-label text{fill:#333;}#container .cluster-label span{color:#333;}#container .cluster-label span p{background-color:transparent;}#container .label text,#container span{fill:#000000;color:#000000;}#container .node rect,#container .node circle,#container .node ellipse,#container .node polygon,#container .node path{fill:#eee;stroke:#999;stroke-width:1px;}#container .rough-node .label text,#container .node .label text,#container .image-shape .label,#container .icon-shape .label{text-anchor:middle;}#container .node .katex path{fill:#000;stroke:#000;stroke-width:1px;}#container .rough-node .label,#container .node .label,#container .image-shape .label,#container .icon-shape .label{text-align:center;}#container .node.clickable{cursor:pointer;}#container .root .anchor path{fill:#666!important;stroke-width:0;stroke:#666;}#container .arrowheadPath{fill:#333333;}#container .edgePath .path{stroke:#666;stroke-width:2.0px;}#container .flowchart-link{stroke:#666;fill:none;}#container .edgeLabel{background-color:white;text-align:center;}#container .edgeLabel p{background-color:white;}#container .edgeLabel rect{opacity:0.5;background-color:white;fill:white;}#container .labelBkg{background-color:rgba(255, 255, 255, 0.5);}#container .cluster rect{fill:hsl(0, 0%, 98.9215686275%);stroke:#707070;stroke-width:1px;}#container .cluster text{fill:#333;}#container .cluster span{color:#333;}#container div.mermaidTooltip{position:absolute;text-align:center;max-width:200px;padding:2px;font-family:&quot;trebuchet ms&quot;,verdana,arial,sans-serif;font-size:12px;background:hsl(-160, 0%, 93.3333333333%);border:1px solid #707070;border-radius:2px;pointer-events:none;z-index:100;}#container .flowchartTitleText{text-anchor:middle;font-size:18px;fill:#000000;}#container rect.text{fill:none;stroke-width:0;}#container .icon-shape,#container .image-shape{background-color:white;text-align:center;}#container .icon-shape p,#container .image-shape p{background-color:white;padding:2px;}#container .icon-shape rect,#container .image-shape rect{opacity:0.5;background-color:white;fill:white;}#container :root{--mermaid-font-family:&quot;trebuchet ms&quot;,verdana,arial,sans-serif;}#container .actor&amp;gt;*{fill:#ffd700!important;stroke:#000!important;}#container .actor span{fill:#ffd700!important;stroke:#000!important;}#container .swimlane&amp;gt;*{fill:#e0e0e0!important;stroke:#666!important;stroke-width:2px!important;}#container .swimlane span{fill:#e0e0e0!important;stroke:#666!important;stroke-width:2px!important;}&lt;/style&gt;&lt;g&gt;&lt;marker id=&quot;container_flowchart-v2-pointEnd&quot; class=&quot;marker flowchart-v2&quot; viewBox=&quot;0 0 10 10&quot; refX=&quot;5&quot; refY=&quot;5&quot; markerUnits=&quot;userSpaceOnUse&quot; markerWidth=&quot;8&quot; markerHeight=&quot;8&quot; orient=&quot;auto&quot;&gt;&lt;path d=&quot;M 0 0 L 10 5 L 0 10 z&quot; class=&quot;arrowMarkerPath&quot; style=&quot;stroke-width: 1; stroke-dasharray: 1, 0;&quot;&gt;&lt;/path&gt;&lt;/marker&gt;&lt;marker id=&quot;container_flowchart-v2-pointStart&quot; class=&quot;marker flowchart-v2&quot; viewBox=&quot;0 0 10 10&quot; refX=&quot;4.5&quot; refY=&quot;5&quot; markerUnits=&quot;userSpaceOnUse&quot; markerWidth=&quot;8&quot; markerHeight=&quot;8&quot; orient=&quot;auto&quot;&gt;&lt;path d=&quot;M 0 5 L 10 10 L 10 0 z&quot; class=&quot;arrowMarkerPath&quot; style=&quot;stroke-width: 1; stroke-dasharray: 1, 0;&quot;&gt;&lt;/path&gt;&lt;/marker&gt;&lt;marker id=&quot;container_flowchart-v2-circleEnd&quot; class=&quot;marker flowchart-v2&quot; viewBox=&quot;0 0 10 10&quot; refX=&quot;11&quot; refY=&quot;5&quot; markerUnits=&quot;userSpaceOnUse&quot; markerWidth=&quot;11&quot; markerHeight=&quot;11&quot; orient=&quot;auto&quot;&gt;&lt;circle cx=&quot;5&quot; cy=&quot;5&quot; r=&quot;5&quot; class=&quot;arrowMarkerPath&quot; style=&quot;stroke-width: 1; stroke-dasharray: 1, 0;&quot;&gt;&lt;/circle&gt;&lt;/marker&gt;&lt;marker id=&quot;container_flowchart-v2-circleStart&quot; class=&quot;marker flowchart-v2&quot; viewBox=&quot;0 0 10 10&quot; refX=&quot;-1&quot; refY=&quot;5&quot; markerUnits=&quot;userSpaceOnUse&quot; markerWidth=&quot;11&quot; markerHeight=&quot;11&quot; orient=&quot;auto&quot;&gt;&lt;circle cx=&quot;5&quot; cy=&quot;5&quot; r=&quot;5&quot; class=&quot;arrowMarkerPath&quot; style=&quot;stroke-width: 1; stroke-dasharray: 1, 0;&quot;&gt;&lt;/circle&gt;&lt;/marker&gt;&lt;marker id=&quot;container_flowchart-v2-crossEnd&quot; class=&quot;marker cross flowchart-v2&quot; viewBox=&quot;0 0 11 11&quot; refX=&quot;12&quot; refY=&quot;5.2&quot; markerUnits=&quot;userSpaceOnUse&quot; markerWidth=&quot;11&quot; markerHeight=&quot;11&quot; orient=&quot;auto&quot;&gt;&lt;path d=&quot;M 1,1 l 9,9 M 10,1 l -9,9&quot; class=&quot;arrowMarkerPath&quot; style=&quot;stroke-width: 2; stroke-dasharray: 1, 0;&quot;&gt;&lt;/path&gt;&lt;/marker&gt;&lt;marker id=&quot;container_flowchart-v2-crossStart&quot; class=&quot;marker cross flowchart-v2&quot; viewBox=&quot;0 0 11 11&quot; refX=&quot;-1&quot; refY=&quot;5.2&quot; markerUnits=&quot;userSpaceOnUse&quot; markerWidth=&quot;11&quot; markerHeight=&quot;11&quot; orient=&quot;auto&quot;&gt;&lt;path d=&quot;M 1,1 l 9,9 M 10,1 l -9,9&quot; class=&quot;arrowMarkerPath&quot; style=&quot;stroke-width: 2; stroke-dasharray: 1, 0;&quot;&gt;&lt;/path&gt;&lt;/marker&gt;&lt;g class=&quot;root&quot;&gt;&lt;g class=&quot;clusters&quot;&gt;&lt;/g&gt;&lt;g class=&quot;edgePaths&quot;&gt;&lt;/g&gt;&lt;g class=&quot;edgeLabels&quot;&gt;&lt;/g&gt;&lt;g class=&quot;nodes&quot;&gt;&lt;g class=&quot;root&quot; transform=&quot;translate(0, 0)&quot;&gt;&lt;g class=&quot;clusters&quot;&gt;&lt;g class=&quot;cluster&quot; id=&quot;subGraph1&quot; data-look=&quot;classic&quot;&gt;&lt;rect style=&quot;&quot; x=&quot;8&quot; y=&quot;8&quot; width=&quot;1157.33203125&quot; height=&quot;1242.84375&quot;&gt;&lt;/rect&gt;&lt;g class=&quot;cluster-label&quot; transform=&quot;translate(514.494140625, 8)&quot;&gt;&lt;foreignObject width=&quot;144.34375&quot; height=&quot;24&quot;&gt;&lt;div xmlns=&quot;http://www.w3.org/1999/xhtml&quot; style=&quot;display: table-cell; white-space: nowrap; line-height: 1.5; max-width: 200px; text-align: center;&quot;&gt;&lt;span class=&quot;nodeLabel&quot;&gt;&lt;p&gt;User Authentication&lt;/p&gt;&lt;/span&gt;&lt;/div&gt;&lt;/foreignObject&gt;&lt;/g&gt;&lt;/g&gt;&lt;g class=&quot;cluster&quot; id=&quot;Swimlanes&quot; data-look=&quot;classic&quot;&gt;&lt;rect style=&quot;&quot; x=&quot;28&quot; y=&quot;45.5&quot; width=&quot;471.09375&quot; height=&quot;282&quot;&gt;&lt;/rect&gt;&lt;g class=&quot;cluster-label&quot; transform=&quot;translate(224.8984375, 45.5)&quot;&gt;&lt;foreignObject width=&quot;77.296875&quot; height=&quot;24&quot;&gt;&lt;div xmlns=&quot;http://www.w3.org/1999/xhtml&quot; style=&quot;display: table-cell; white-space: nowrap; line-height: 1.5; max-width: 200px; text-align: center;&quot;&gt;&lt;span class=&quot;nodeLabel&quot;&gt;&lt;p&gt;Swimlanes&lt;/p&gt;&lt;/span&gt;&lt;/div&gt;&lt;/foreignObject&gt;&lt;/g&gt;&lt;/g&gt;&lt;/g&gt;&lt;g class=&quot;edgePaths&quot;&gt;&lt;path d=&quot;M222.238,137L214.325,145.25C206.411,153.5,190.585,170,182.671,185.833C174.758,201.667,174.758,216.833,174.758,224.417L174.758,232&quot; id=&quot;L_U_A_0&quot; class=&quot;edge-thickness-normal edge-pattern-solid edge-thickness-normal edge-pattern-solid flowchart-link&quot; style=&quot;&quot; marker-end=&quot;url(#container_flowchart-v2-pointEnd)&quot;&gt;&lt;/path&gt;&lt;path d=&quot;M321.516,1104.586L321.516,1084.71C321.516,1064.833,321.516,1025.081,321.516,988.716C321.516,952.352,321.516,919.375,321.516,888.398C321.516,857.422,321.516,828.445,321.516,801.207C321.516,773.969,321.516,748.469,321.516,720.969C321.516,693.469,321.516,663.969,321.516,625.763C321.516,587.557,321.516,540.646,321.516,495.734C321.516,450.823,321.516,407.911,321.516,380.206C321.516,352.5,321.516,340,321.516,323C321.516,306,321.516,284.5,321.516,261C321.516,237.5,321.516,212,314.064,191.481C306.612,170.962,291.708,155.424,284.256,147.656L276.804,139.887&quot; id=&quot;L_start_U_1&quot; class=&quot;edge-thickness-normal edge-pattern-solid edge-thickness-normal edge-pattern-solid flowchart-link&quot; style=&quot;&quot; marker-end=&quot;url(#container_flowchart-v2-pointEnd)&quot;&gt;&lt;/path&gt;&lt;path d=&quot;M294.582,131.91L313.869,141.008C333.156,150.107,371.73,168.303,413.074,185.424C454.418,202.544,498.532,218.589,520.589,226.611L542.645,234.633&quot; id=&quot;L_U_A1_2&quot; class=&quot;edge-thickness-normal edge-pattern-solid edge-thickness-normal edge-pattern-solid flowchart-link&quot; style=&quot;&quot; marker-end=&quot;url(#container_flowchart-v2-pointEnd)&quot;&gt;&lt;/path&gt;&lt;path d=&quot;M620.641,290L620.641,296.25C620.641,302.5,620.641,315,620.641,327.5C620.641,340,620.641,352.5,620.715,364.417C620.79,376.333,620.939,387.667,621.013,393.334L621.088,399&quot; id=&quot;L_A1_decision1_3&quot; class=&quot;edge-thickness-normal edge-pattern-solid edge-thickness-normal edge-pattern-solid flowchart-link&quot; style=&quot;&quot; marker-end=&quot;url(#container_flowchart-v2-pointEnd)&quot;&gt;&lt;/path&gt;&lt;path d=&quot;M678.364,528.245L708.209,545.949C738.053,563.653,797.741,599.061,827.585,626.348C857.43,653.635,857.43,672.802,857.43,682.385L857.43,691.969&quot; id=&quot;L_decision1_A2_4&quot; class=&quot;edge-thickness-normal edge-pattern-solid edge-thickness-normal edge-pattern-solid flowchart-link&quot; style=&quot;&quot; marker-end=&quot;url(#container_flowchart-v2-pointEnd)&quot;&gt;&lt;/path&gt;&lt;path d=&quot;M857.43,749.969L857.43,758.219C857.43,766.469,857.43,782.969,857.43,800.54C857.43,818.112,857.43,836.755,857.43,846.077L857.43,855.398&quot; id=&quot;L_A2_U2_5&quot; class=&quot;edge-thickness-normal edge-pattern-solid edge-thickness-normal edge-pattern-solid flowchart-link&quot; style=&quot;&quot; marker-end=&quot;url(#container_flowchart-v2-pointEnd)&quot;&gt;&lt;/path&gt;&lt;path d=&quot;M807.849,913.398L785.834,925.387C763.82,937.375,719.791,961.352,697.776,992.549C675.762,1023.747,675.762,1062.167,675.762,1081.376L675.762,1100.586&quot; id=&quot;L_U2_end1_6&quot; class=&quot;edge-thickness-normal edge-pattern-solid edge-thickness-normal edge-pattern-solid flowchart-link&quot; style=&quot;&quot; marker-end=&quot;url(#container_flowchart-v2-pointEnd)&quot;&gt;&lt;/path&gt;&lt;path d=&quot;M605.324,569.652L602.957,580.455C600.591,591.257,595.858,612.863,593.491,631.249C591.125,649.635,591.125,664.802,591.125,672.385L591.125,679.969&quot; id=&quot;L_decision1_U3_7&quot; class=&quot;edge-thickness-normal edge-pattern-solid edge-thickness-normal edge-pattern-solid flowchart-link&quot; style=&quot;&quot; marker-end=&quot;url(#container_flowchart-v2-pointEnd)&quot;&gt;&lt;/path&gt;&lt;path d=&quot;M591.125,761.969L591.125,768.219C591.125,774.469,591.125,786.969,591.2,798.885C591.274,810.802,591.423,822.136,591.498,827.802L591.572,833.469&quot; id=&quot;L_U3_decision2_8&quot; class=&quot;edge-thickness-normal edge-pattern-solid edge-thickness-normal edge-pattern-solid flowchart-link&quot; style=&quot;&quot; marker-end=&quot;url(#container_flowchart-v2-pointEnd)&quot;&gt;&lt;/path&gt;&lt;path d=&quot;M566.289,910.992L553.09,923.381C539.891,935.771,513.492,960.549,477.086,992.387C440.679,1024.224,394.265,1063.121,371.058,1082.569L347.851,1102.017&quot; id=&quot;L_decision2_start_9&quot; class=&quot;edge-thickness-normal edge-pattern-solid edge-thickness-normal edge-pattern-solid flowchart-link&quot; style=&quot;&quot; marker-end=&quot;url(#container_flowchart-v2-pointEnd)&quot;&gt;&lt;/path&gt;&lt;path d=&quot;M623.937,904.016L649.593,917.568C675.248,931.12,726.56,958.224,752.215,990.986C777.871,1023.747,777.871,1062.167,777.871,1081.376L777.871,1100.586&quot; id=&quot;L_decision2_end2_10&quot; class=&quot;edge-thickness-normal edge-pattern-solid edge-thickness-normal edge-pattern-solid flowchart-link&quot; style=&quot;&quot; marker-end=&quot;url(#container_flowchart-v2-pointEnd)&quot;&gt;&lt;/path&gt;&lt;/g&gt;&lt;g class=&quot;edgeLabels&quot;&gt;&lt;g class=&quot;edgeLabel&quot;&gt;&lt;g class=&quot;label&quot; transform=&quot;translate(0, 0)&quot;&gt;&lt;foreignObject width=&quot;0&quot; height=&quot;0&quot;&gt;&lt;div xmlns=&quot;http://www.w3.org/1999/xhtml&quot; class=&quot;labelBkg&quot; style=&quot;display: table-cell; white-space: nowrap; line-height: 1.5; max-width: 200px; text-align: center;&quot;&gt;&lt;span class=&quot;edgeLabel&quot;&gt;&lt;/span&gt;&lt;/div&gt;&lt;/foreignObject&gt;&lt;/g&gt;&lt;/g&gt;&lt;g class=&quot;edgeLabel&quot;&gt;&lt;g class=&quot;label&quot; transform=&quot;translate(0, 0)&quot;&gt;&lt;foreignObject width=&quot;0&quot; height=&quot;0&quot;&gt;&lt;div xmlns=&quot;http://www.w3.org/1999/xhtml&quot; class=&quot;labelBkg&quot; style=&quot;display: table-cell; white-space: nowrap; line-height: 1.5; max-width: 200px; text-align: center;&quot;&gt;&lt;span class=&quot;edgeLabel&quot;&gt;&lt;/span&gt;&lt;/div&gt;&lt;/foreignObject&gt;&lt;/g&gt;&lt;/g&gt;&lt;g class=&quot;edgeLabel&quot; transform=&quot;translate(410.3046875, 186.5)&quot;&gt;&lt;g class=&quot;label&quot; transform=&quot;translate(-68.7890625, -12)&quot;&gt;&lt;foreignObject width=&quot;137.578125&quot; height=&quot;24&quot;&gt;&lt;div xmlns=&quot;http://www.w3.org/1999/xhtml&quot; class=&quot;labelBkg&quot; style=&quot;display: table-cell; white-space: nowrap; line-height: 1.5; max-width: 200px; text-align: center;&quot;&gt;&lt;span class=&quot;edgeLabel&quot;&gt;&lt;p&gt;Submit Credentials&lt;/p&gt;&lt;/span&gt;&lt;/div&gt;&lt;/foreignObject&gt;&lt;/g&gt;&lt;/g&gt;&lt;g class=&quot;edgeLabel&quot;&gt;&lt;g class=&quot;label&quot; transform=&quot;translate(0, 0)&quot;&gt;&lt;foreignObject width=&quot;0&quot; height=&quot;0&quot;&gt;&lt;div xmlns=&quot;http://www.w3.org/1999/xhtml&quot; class=&quot;labelBkg&quot; style=&quot;display: table-cell; white-space: nowrap; line-height: 1.5; max-width: 200px; text-align: center;&quot;&gt;&lt;span class=&quot;edgeLabel&quot;&gt;&lt;/span&gt;&lt;/div&gt;&lt;/foreignObject&gt;&lt;/g&gt;&lt;/g&gt;&lt;g class=&quot;edgeLabel&quot; transform=&quot;translate(857.4296875, 634.46875)&quot;&gt;&lt;g class=&quot;label&quot; transform=&quot;translate(-12.03125, -12)&quot;&gt;&lt;foreignObject width=&quot;24.0625&quot; height=&quot;24&quot;&gt;&lt;div xmlns=&quot;http://www.w3.org/1999/xhtml&quot; class=&quot;labelBkg&quot; style=&quot;display: table-cell; white-space: nowrap; line-height: 1.5; max-width: 200px; text-align: center;&quot;&gt;&lt;span class=&quot;edgeLabel&quot;&gt;&lt;p&gt;Yes&lt;/p&gt;&lt;/span&gt;&lt;/div&gt;&lt;/foreignObject&gt;&lt;/g&gt;&lt;/g&gt;&lt;g class=&quot;edgeLabel&quot;&gt;&lt;g class=&quot;label&quot; transform=&quot;translate(0, 0)&quot;&gt;&lt;foreignObject width=&quot;0&quot; height=&quot;0&quot;&gt;&lt;div xmlns=&quot;http://www.w3.org/1999/xhtml&quot; class=&quot;labelBkg&quot; style=&quot;display: table-cell; white-space: nowrap; line-height: 1.5; max-width: 200px; text-align: center;&quot;&gt;&lt;span class=&quot;edgeLabel&quot;&gt;&lt;/span&gt;&lt;/div&gt;&lt;/foreignObject&gt;&lt;/g&gt;&lt;/g&gt;&lt;g class=&quot;edgeLabel&quot;&gt;&lt;g class=&quot;label&quot; transform=&quot;translate(0, 0)&quot;&gt;&lt;foreignObject width=&quot;0&quot; height=&quot;0&quot;&gt;&lt;div xmlns=&quot;http://www.w3.org/1999/xhtml&quot; class=&quot;labelBkg&quot; style=&quot;display: table-cell; white-space: nowrap; line-height: 1.5; max-width: 200px; text-align: center;&quot;&gt;&lt;span class=&quot;edgeLabel&quot;&gt;&lt;/span&gt;&lt;/div&gt;&lt;/foreignObject&gt;&lt;/g&gt;&lt;/g&gt;&lt;g class=&quot;edgeLabel&quot; transform=&quot;translate(591.125, 634.46875)&quot;&gt;&lt;g class=&quot;label&quot; transform=&quot;translate(-10.140625, -12)&quot;&gt;&lt;foreignObject width=&quot;20.28125&quot; height=&quot;24&quot;&gt;&lt;div xmlns=&quot;http://www.w3.org/1999/xhtml&quot; class=&quot;labelBkg&quot; style=&quot;display: table-cell; white-space: nowrap; line-height: 1.5; max-width: 200px; text-align: center;&quot;&gt;&lt;span class=&quot;edgeLabel&quot;&gt;&lt;p&gt;No&lt;/p&gt;&lt;/span&gt;&lt;/div&gt;&lt;/foreignObject&gt;&lt;/g&gt;&lt;/g&gt;&lt;g class=&quot;edgeLabel&quot;&gt;&lt;g class=&quot;label&quot; transform=&quot;translate(0, 0)&quot;&gt;&lt;foreignObject width=&quot;0&quot; height=&quot;0&quot;&gt;&lt;div xmlns=&quot;http://www.w3.org/1999/xhtml&quot; class=&quot;labelBkg&quot; style=&quot;display: table-cell; white-space: nowrap; line-height: 1.5; max-width: 200px; text-align: center;&quot;&gt;&lt;span class=&quot;edgeLabel&quot;&gt;&lt;/span&gt;&lt;/div&gt;&lt;/foreignObject&gt;&lt;/g&gt;&lt;/g&gt;&lt;g class=&quot;edgeLabel&quot; transform=&quot;translate(487.09375, 985.328125)&quot;&gt;&lt;g class=&quot;label&quot; transform=&quot;translate(-12.03125, -12)&quot;&gt;&lt;foreignObject width=&quot;24.0625&quot; height=&quot;24&quot;&gt;&lt;div xmlns=&quot;http://www.w3.org/1999/xhtml&quot; class=&quot;labelBkg&quot; style=&quot;display: table-cell; white-space: nowrap; line-height: 1.5; max-width: 200px; text-align: center;&quot;&gt;&lt;span class=&quot;edgeLabel&quot;&gt;&lt;p&gt;Yes&lt;/p&gt;&lt;/span&gt;&lt;/div&gt;&lt;/foreignObject&gt;&lt;/g&gt;&lt;/g&gt;&lt;g class=&quot;edgeLabel&quot; transform=&quot;translate(777.87109375, 985.328125)&quot;&gt;&lt;g class=&quot;label&quot; transform=&quot;translate(-10.140625, -12)&quot;&gt;&lt;foreignObject width=&quot;20.28125&quot; height=&quot;24&quot;&gt;&lt;div xmlns=&quot;http://www.w3.org/1999/xhtml&quot; class=&quot;labelBkg&quot; style=&quot;display: table-cell; white-space: nowrap; line-height: 1.5; max-width: 200px; text-align: center;&quot;&gt;&lt;span class=&quot;edgeLabel&quot;&gt;&lt;p&gt;No&lt;/p&gt;&lt;/span&gt;&lt;/div&gt;&lt;/foreignObject&gt;&lt;/g&gt;&lt;/g&gt;&lt;/g&gt;&lt;g class=&quot;nodes&quot;&gt;&lt;g class=&quot;node default swimlane&quot; id=&quot;flowchart-U-2&quot; transform=&quot;translate(248.13671875, 110)&quot;&gt;&lt;rect class=&quot;basic label-container&quot; style=&quot;fill:#e0e0e0 !important;stroke:#666 !important;stroke-width:2px !important&quot; x=&quot;-46.4453125&quot; y=&quot;-27&quot; width=&quot;92.890625&quot; height=&quot;54&quot;&gt;&lt;/rect&gt;&lt;g class=&quot;label&quot; style=&quot;&quot; transform=&quot;translate(-16.4453125, -12)&quot;&gt;&lt;rect&gt;&lt;/rect&gt;&lt;foreignObject width=&quot;32.890625&quot; height=&quot;24&quot;&gt;&lt;div xmlns=&quot;http://www.w3.org/1999/xhtml&quot; style=&quot;display: table-cell; white-space: nowrap; line-height: 1.5; max-width: 200px; text-align: center;&quot;&gt;&lt;span class=&quot;nodeLabel&quot;&gt;&lt;p&gt;User&lt;/p&gt;&lt;/span&gt;&lt;/div&gt;&lt;/foreignObject&gt;&lt;/g&gt;&lt;/g&gt;&lt;g class=&quot;node default swimlane&quot; id=&quot;flowchart-A-3&quot; transform=&quot;translate(174.7578125, 263)&quot;&gt;&lt;rect class=&quot;basic label-container&quot; style=&quot;fill:#e0e0e0 !important;stroke:#666 !important;stroke-width:2px !important&quot; x=&quot;-111.7578125&quot; y=&quot;-27&quot; width=&quot;223.515625&quot; height=&quot;54&quot;&gt;&lt;/rect&gt;&lt;g class=&quot;label&quot; style=&quot;&quot; transform=&quot;translate(-81.7578125, -12)&quot;&gt;&lt;rect&gt;&lt;/rect&gt;&lt;foreignObject width=&quot;163.515625&quot; height=&quot;24&quot;&gt;&lt;div xmlns=&quot;http://www.w3.org/1999/xhtml&quot; style=&quot;display: table-cell; white-space: nowrap; line-height: 1.5; max-width: 200px; text-align: center;&quot;&gt;&lt;span class=&quot;nodeLabel&quot;&gt;&lt;p&gt;Authentication Service&lt;/p&gt;&lt;/span&gt;&lt;/div&gt;&lt;/foreignObject&gt;&lt;/g&gt;&lt;/g&gt;&lt;g class=&quot;node default&quot; id=&quot;flowchart-start-6&quot; transform=&quot;translate(321.515625, 1124.0859375)&quot;&gt;&lt;rect class=&quot;basic label-container&quot; style=&quot;&quot; rx=&quot;19.5&quot; ry=&quot;19.5&quot; x=&quot;-29.8984375&quot; y=&quot;-19.5&quot; width=&quot;59.796875&quot; height=&quot;39&quot;&gt;&lt;/rect&gt;&lt;g class=&quot;label&quot; style=&quot;&quot; transform=&quot;translate(-17.5234375, -12)&quot;&gt;&lt;rect&gt;&lt;/rect&gt;&lt;foreignObject width=&quot;35.046875&quot; height=&quot;24&quot;&gt;&lt;div xmlns=&quot;http://www.w3.org/1999/xhtml&quot; style=&quot;display: table-cell; white-space: nowrap; line-height: 1.5; max-width: 200px; text-align: center;&quot;&gt;&lt;span class=&quot;nodeLabel&quot;&gt;&lt;p&gt;Start&lt;/p&gt;&lt;/span&gt;&lt;/div&gt;&lt;/foreignObject&gt;&lt;/g&gt;&lt;/g&gt;&lt;g class=&quot;node default&quot; id=&quot;flowchart-A1-9&quot; transform=&quot;translate(620.640625, 263)&quot;&gt;&lt;rect class=&quot;basic label-container&quot; style=&quot;&quot; x=&quot;-86.546875&quot; y=&quot;-27&quot; width=&quot;173.09375&quot; height=&quot;54&quot;&gt;&lt;/rect&gt;&lt;g class=&quot;label&quot; style=&quot;&quot; transform=&quot;translate(-56.546875, -12)&quot;&gt;&lt;rect&gt;&lt;/rect&gt;&lt;foreignObject width=&quot;113.09375&quot; height=&quot;24&quot;&gt;&lt;div xmlns=&quot;http://www.w3.org/1999/xhtml&quot; style=&quot;display: table-cell; white-space: nowrap; line-height: 1.5; max-width: 200px; text-align: center;&quot;&gt;&lt;span class=&quot;nodeLabel&quot;&gt;&lt;p&gt;Verify Password&lt;/p&gt;&lt;/span&gt;&lt;/div&gt;&lt;/foreignObject&gt;&lt;/g&gt;&lt;/g&gt;&lt;g class=&quot;node default&quot; id=&quot;flowchart-decision1-11&quot; transform=&quot;translate(620.640625, 493.734375)&quot;&gt;&lt;polygon points=&quot;91.234375,0 182.46875,-91.234375 91.234375,-182.46875 0,-91.234375&quot; class=&quot;label-container&quot; transform=&quot;translate(-91.234375,91.234375)&quot;&gt;&lt;/polygon&gt;&lt;g class=&quot;label&quot; style=&quot;&quot; transform=&quot;translate(-64.234375, -12)&quot;&gt;&lt;rect&gt;&lt;/rect&gt;&lt;foreignObject width=&quot;128.46875&quot; height=&quot;24&quot;&gt;&lt;div xmlns=&quot;http://www.w3.org/1999/xhtml&quot; style=&quot;display: table-cell; white-space: nowrap; line-height: 1.5; max-width: 200px; text-align: center;&quot;&gt;&lt;span class=&quot;nodeLabel&quot;&gt;&lt;p&gt;Valid Credentials?&lt;/p&gt;&lt;/span&gt;&lt;/div&gt;&lt;/foreignObject&gt;&lt;/g&gt;&lt;/g&gt;&lt;g class=&quot;node default&quot; id=&quot;flowchart-A2-13&quot; transform=&quot;translate(857.4296875, 722.96875)&quot;&gt;&lt;rect class=&quot;basic label-container&quot; style=&quot;&quot; x=&quot;-86.3046875&quot; y=&quot;-27&quot; width=&quot;172.609375&quot; height=&quot;54&quot;&gt;&lt;/rect&gt;&lt;g class=&quot;label&quot; style=&quot;&quot; transform=&quot;translate(-56.3046875, -12)&quot;&gt;&lt;rect&gt;&lt;/rect&gt;&lt;foreignObject width=&quot;112.609375&quot; height=&quot;24&quot;&gt;&lt;div xmlns=&quot;http://www.w3.org/1999/xhtml&quot; style=&quot;display: table-cell; white-space: nowrap; line-height: 1.5; max-width: 200px; text-align: center;&quot;&gt;&lt;span class=&quot;nodeLabel&quot;&gt;&lt;p&gt;Generate Token&lt;/p&gt;&lt;/span&gt;&lt;/div&gt;&lt;/foreignObject&gt;&lt;/g&gt;&lt;/g&gt;&lt;g class=&quot;node default&quot; id=&quot;flowchart-U2-15&quot; transform=&quot;translate(857.4296875, 886.3984375)&quot;&gt;&lt;rect class=&quot;basic label-container&quot; style=&quot;&quot; x=&quot;-79.78125&quot; y=&quot;-27&quot; width=&quot;159.5625&quot; height=&quot;54&quot;&gt;&lt;/rect&gt;&lt;g class=&quot;label&quot; style=&quot;&quot; transform=&quot;translate(-49.78125, -12)&quot;&gt;&lt;rect&gt;&lt;/rect&gt;&lt;foreignObject width=&quot;99.5625&quot; height=&quot;24&quot;&gt;&lt;div xmlns=&quot;http://www.w3.org/1999/xhtml&quot; style=&quot;display: table-cell; white-space: nowrap; line-height: 1.5; max-width: 200px; text-align: center;&quot;&gt;&lt;span class=&quot;nodeLabel&quot;&gt;&lt;p&gt;Login Success&lt;/p&gt;&lt;/span&gt;&lt;/div&gt;&lt;/foreignObject&gt;&lt;/g&gt;&lt;/g&gt;&lt;g class=&quot;node default&quot; id=&quot;flowchart-end1-16&quot; transform=&quot;translate(675.76171875, 1124.0859375)&quot;&gt;&lt;rect class=&quot;basic label-container&quot; style=&quot;&quot; rx=&quot;19.5&quot; ry=&quot;19.5&quot; x=&quot;-26.0546875&quot; y=&quot;-19.5&quot; width=&quot;52.109375&quot; height=&quot;39&quot;&gt;&lt;/rect&gt;&lt;g class=&quot;label&quot; style=&quot;&quot; transform=&quot;translate(-13.6796875, -12)&quot;&gt;&lt;rect&gt;&lt;/rect&gt;&lt;foreignObject width=&quot;27.359375&quot; height=&quot;24&quot;&gt;&lt;div xmlns=&quot;http://www.w3.org/1999/xhtml&quot; style=&quot;display: table-cell; white-space: nowrap; line-height: 1.5; max-width: 200px; text-align: center;&quot;&gt;&lt;span class=&quot;nodeLabel&quot;&gt;&lt;p&gt;End&lt;/p&gt;&lt;/span&gt;&lt;/div&gt;&lt;/foreignObject&gt;&lt;/g&gt;&lt;/g&gt;&lt;g class=&quot;node default&quot; id=&quot;flowchart-U3-18&quot; transform=&quot;translate(591.125, 722.96875)&quot;&gt;&lt;rect class=&quot;basic label-container&quot; style=&quot;&quot; x=&quot;-130&quot; y=&quot;-39&quot; width=&quot;260&quot; height=&quot;78&quot;&gt;&lt;/rect&gt;&lt;g class=&quot;label&quot; style=&quot;&quot; transform=&quot;translate(-100, -24)&quot;&gt;&lt;rect&gt;&lt;/rect&gt;&lt;foreignObject width=&quot;200&quot; height=&quot;48&quot;&gt;&lt;div xmlns=&quot;http://www.w3.org/1999/xhtml&quot; style=&quot;display: table; white-space: break-spaces; line-height: 1.5; max-width: 200px; text-align: center; width: 200px;&quot;&gt;&lt;span class=&quot;nodeLabel&quot;&gt;&lt;p&gt;Display Error: Invalid Credentials&lt;/p&gt;&lt;/span&gt;&lt;/div&gt;&lt;/foreignObject&gt;&lt;/g&gt;&lt;/g&gt;&lt;g class=&quot;node default&quot; id=&quot;flowchart-decision2-20&quot; transform=&quot;translate(591.125, 886.3984375)&quot;&gt;&lt;polygon points=&quot;49.4296875,0 98.859375,-49.4296875 49.4296875,-98.859375 0,-49.4296875&quot; class=&quot;label-container&quot; transform=&quot;translate(-49.4296875,49.4296875)&quot;&gt;&lt;/polygon&gt;&lt;g class=&quot;label&quot; style=&quot;&quot; transform=&quot;translate(-22.4296875, -12)&quot;&gt;&lt;rect&gt;&lt;/rect&gt;&lt;foreignObject width=&quot;44.859375&quot; height=&quot;24&quot;&gt;&lt;div xmlns=&quot;http://www.w3.org/1999/xhtml&quot; style=&quot;display: table-cell; white-space: nowrap; line-height: 1.5; max-width: 200px; text-align: center;&quot;&gt;&lt;span class=&quot;nodeLabel&quot;&gt;&lt;p&gt;Retry?&lt;/p&gt;&lt;/span&gt;&lt;/div&gt;&lt;/foreignObject&gt;&lt;/g&gt;&lt;/g&gt;&lt;g class=&quot;node default&quot; id=&quot;flowchart-end2-24&quot; transform=&quot;translate(777.87109375, 1124.0859375)&quot;&gt;&lt;rect class=&quot;basic label-container&quot; style=&quot;&quot; rx=&quot;19.5&quot; ry=&quot;19.5&quot; x=&quot;-26.0546875&quot; y=&quot;-19.5&quot; width=&quot;52.109375&quot; height=&quot;39&quot;&gt;&lt;/rect&gt;&lt;g class=&quot;label&quot; style=&quot;&quot; transform=&quot;translate(-13.6796875, -12)&quot;&gt;&lt;rect&gt;&lt;/rect&gt;&lt;foreignObject width=&quot;27.359375&quot; height=&quot;24&quot;&gt;&lt;div xmlns=&quot;http://www.w3.org/1999/xhtml&quot; style=&quot;display: table-cell; white-space: nowrap; line-height: 1.5; max-width: 200px; text-align: center;&quot;&gt;&lt;span class=&quot;nodeLabel&quot;&gt;&lt;p&gt;End&lt;/p&gt;&lt;/span&gt;&lt;/div&gt;&lt;/foreignObject&gt;&lt;/g&gt;&lt;/g&gt;&lt;g class=&quot;node default actor&quot; id=&quot;flowchart-actorU-0&quot; transform=&quot;translate(877.87109375, 1124.0859375)&quot;&gt;&lt;circle class=&quot;basic label-container&quot; style=&quot;fill:#ffd700 !important;stroke:#000 !important&quot; r=&quot;23.9453125&quot; cx=&quot;0&quot; cy=&quot;0&quot;&gt;&lt;/circle&gt;&lt;g class=&quot;label&quot; style=&quot;&quot; transform=&quot;translate(-16.4453125, -12)&quot;&gt;&lt;rect&gt;&lt;/rect&gt;&lt;foreignObject width=&quot;32.890625&quot; height=&quot;24&quot;&gt;&lt;div xmlns=&quot;http://www.w3.org/1999/xhtml&quot; style=&quot;display: table-cell; white-space: nowrap; line-height: 1.5; max-width: 200px; text-align: center;&quot;&gt;&lt;span class=&quot;nodeLabel&quot;&gt;&lt;p&gt;User&lt;/p&gt;&lt;/span&gt;&lt;/div&gt;&lt;/foreignObject&gt;&lt;/g&gt;&lt;/g&gt;&lt;g class=&quot;node default actor&quot; id=&quot;flowchart-actorA-1&quot; transform=&quot;translate(1041.07421875, 1124.0859375)&quot;&gt;&lt;circle class=&quot;basic label-container&quot; style=&quot;fill:#ffd700 !important;stroke:#000 !important&quot; r=&quot;89.2578125&quot; cx=&quot;0&quot; cy=&quot;0&quot;&gt;&lt;/circle&gt;&lt;g class=&quot;label&quot; style=&quot;&quot; transform=&quot;translate(-81.7578125, -12)&quot;&gt;&lt;rect&gt;&lt;/rect&gt;&lt;foreignObject width=&quot;163.515625&quot; height=&quot;24&quot;&gt;&lt;div xmlns=&quot;http://www.w3.org/1999/xhtml&quot; style=&quot;display: table-cell; white-space: nowrap; line-height: 1.5; max-width: 200px; text-align: center;&quot;&gt;&lt;span class=&quot;nodeLabel&quot;&gt;&lt;p&gt;Authentication Service&lt;/p&gt;&lt;/span&gt;&lt;/div&gt;&lt;/foreignObject&gt;&lt;/g&gt;&lt;/g&gt;&lt;/g&gt;&lt;/g&gt;&lt;/g&gt;&lt;/g&gt;&lt;/g&gt;&lt;/svg&gt;" id="hirIrP60axqZAuuEfvug-2">
          <mxCell style="text;whiteSpace=wrap;html=1;" vertex="1" parent="1">
            <mxGeometry x="80" y="1650" width="560" height="1290" as="geometry" />
          </mxCell>
        </UserObject>
      </root>
    </mxGraphModel>
  </diagram>
</mxfile>
